<svg xmlns="http://www.w3.org/2000/svg" width="1536" height="1296" viewBox="-4 -4 392 332">
<rect x="-4" y="-4" width="392" height="332" fill="#0b3d2e"/>
<polyline points="303,229.5 296.625,229.5 295.5,228.375 295.5,228.375 294.375,227.25 240.25,227.25 238.75,225.75 238.75,223 237.25,221.5 212,221.5 210.5,220 210.5,207 209,205.5 201,205.5 199.5,204 199.5,199.125 198.375,198 198.375,198 197.25,196.875 197.25,193.125 196.375,192.25 196.375,192.25 195.5,191.375 195.5,167 194,165.5 185.5,165.5 184,164 184,141.125 182.875,140 182.875,140 181.75,138.875 181.75,135.75 180.25,134.25 158.5,134.25 157,132.75 157,107.5 155.5,106 155.5,106 154,104.5 154,55.875 154.125,55.75 154.125,55.75 154.25,55.625 154.25,42.625 154.375,42.5 154.375,42.5 154.5,42.375 154.5,33.5 153,32 150.75,32 149.25,30.5 149.25,28" fill="none" stroke="#d94b3a" stroke-width="1.2" stroke-opacity="0.95" stroke-linecap="round" stroke-linejoin="round"/>
<polyline points="230,103.75 219,103.75 217.5,105.25 217.5,120 217.25,120.25 217.25,120.25 217,120.5 217,166.75 215.5,168.25 209.5,168.25 208,169.75 208,175.5 206.5,177 202.5,177 201,178.5 201,194.25" fill="none" stroke="#d94b3a" stroke-width="1.2" stroke-opacity="0.95" stroke-linecap="round" stroke-linejoin="round"/>
<polyline points="201,194.25 199.875,194.25 198.75,195.375 198.75,278.75" fill="none" stroke="#3a6fd9" stroke-width="1.2" stroke-opacity="0.95" stroke-linecap="round" stroke-linejoin="round"/>
<polyline points="340,185.5 340,185.375 339.875,185.25 339.625,185.25 339.25,184.875 339.25,179 337.75,177.5 310,177.5 308.5,176 308.5,165.5 307,164 304.75,164 303.25,162.5 303.25,161" fill="none" stroke="#d94b3a" stroke-width="1.2" stroke-opacity="0.95" stroke-linecap="round" stroke-linejoin="round"/>
<polyline points="300.5,159.25 300.5,159.125 300.375,159 286.25,159 284.75,157.5 284.75,134.5 283.25,133 281.75,133 280.25,131.5 280.25,120.75" fill="none" stroke="#d94b3a" stroke-width="1.2" stroke-opacity="0.95" stroke-linecap="round" stroke-linejoin="round"/>
<polyline points="284.75,144.75 279.25,144.75" fill="none" stroke="#d94b3a" stroke-width="1.2" stroke-opacity="0.95" stroke-linecap="round" stroke-linejoin="round"/>
<polyline points="279.25,144.75 172.25,144.75" fill="none" stroke="#3a6fd9" stroke-width="1.2" stroke-opacity="0.95" stroke-linecap="round" stroke-linejoin="round"/>
<polyline points="170.5,147.25 148.75,147.25 147.25,148.75 147.25,151.75 145.75,153.25 142,153.25 140.5,154.75 140.5,161.625 140.125,162 140.125,162 139.75,162.375 139.75,169.5 139,170.25 139,170.25 138.25,171 138.25,211.375 137.875,211.75 137.875,211.75 137.5,212.125 137.5,220.75 137.75,221 138,221" fill="none" stroke="#d94b3a" stroke-width="1.2" stroke-opacity="0.95" stroke-linecap="round" stroke-linejoin="round"/>
<polyline points="87.25,212.75 87.25,212.875 87.375,213 89.25,213 90.75,214.5 90.75,255.875 90.625,256 90.625,256 90.5,256.125 90.5,273.125 91.875,274.5 91.875,274.5 93.25,275.875 93.25,286 94.75,287.5 97.25,287.5 98.75,289 98.75,299" fill="none" stroke="#d94b3a" stroke-width="1.2" stroke-opacity="0.95" stroke-linecap="round" stroke-linejoin="round"/>
<polyline points="87.25,203.5 87.25,203.375 87.375,203.25 103.25,203.25 104.75,201.75 104.75,153.375 104.625,153.25 104.625,153.25 104.5,153.125 104.5,149.125 104.375,149 104.375,149 104.25,148.875 104.25,140.375 105.125,139.5 105.125,139.5 106,138.625 106,135.25 107.5,133.75 108,133.75 109.5,132.25 109.5,118.25 111,116.75 111.25,116.75 112.75,115.25 112.75,103.25" fill="none" stroke="#d94b3a" stroke-width="1.2" stroke-opacity="0.95" stroke-linecap="round" stroke-linejoin="round"/>
<polyline points="104.75,191.5 129.75,191.5" fill="none" stroke="#d94b3a" stroke-width="1.2" stroke-opacity="0.95" stroke-linecap="round" stroke-linejoin="round"/>
<polyline points="129.75,191.5 154.625,191.5 154.75,191.375 154.75,191.375 154.875,191.25 179.625,191.25 179.75,191.125 179.75,191.125 179.875,191 200.625,191 200.75,190.875 200.75,190.875 200.875,190.75 205.75,190.75 207.25,192.25 207.25,198.25" fill="none" stroke="#3a6fd9" stroke-width="1.2" stroke-opacity="0.95" stroke-linecap="round" stroke-linejoin="round"/>
<polyline points="207.25,198.25 234.75,198.25 236.25,199.75 236.25,273.75" fill="none" stroke="#3a6fd9" stroke-width="1.2" stroke-opacity="0.95" stroke-linecap="round" stroke-linejoin="round"/>
<polyline points="340.5,120.75 330.75,120.75 329.25,122.25 329.25,142.375 329.125,142.5 329.125,142.5 329,142.625 329,142.875 328.625,143.25 324.75,143.25 324.25,143.75 324.25,144.25" fill="none" stroke="#d94b3a" stroke-width="1.6" stroke-opacity="0.95" stroke-linecap="round" stroke-linejoin="round"/>
<polyline points="340.5,117.5 339.75,117.5 339,116.75 339,67.375 339.125,67.25 339.125,67.25 339.25,67.125 339.25,38 337.75,36.5 333.75,36.5 332.25,35 332.25,29.5" fill="none" stroke="#d94b3a" stroke-width="1.6" stroke-opacity="0.95" stroke-linecap="round" stroke-linejoin="round"/>
<polyline points="327.5,27.75 302.375,27.75 302.25,27.875 302.25,27.875 302.125,28 277.625,28 277.5,28.125 277.5,28.125 277.375,28.25 260.875,28.25 260.75,28.375 260.75,28.375 260.625,28.5 228,28.5 226.75,27.25 226.75,26" fill="none" stroke="#d94b3a" stroke-width="1.6" stroke-opacity="0.95" stroke-linecap="round" stroke-linejoin="round"/>
<polyline points="223,26 223,26.125 222.875,26.25 172,26.25 170.5,27.75 170.5,41.25 169,42.75 164.75,42.75 163.25,44.25 163.25,83" fill="none" stroke="#d94b3a" stroke-width="1.6" stroke-opacity="0.95" stroke-linecap="round" stroke-linejoin="round"/>
<polyline points="160.75,86.25 159.25,86.25 157.75,87.75 157.75,100.75" fill="none" stroke="#d94b3a" stroke-width="1.6" stroke-opacity="0.95" stroke-linecap="round" stroke-linejoin="round"/>
<polyline points="157.75,100.75 127.75,100.75" fill="none" stroke="#3a6fd9" stroke-width="1.6" stroke-opacity="0.95" stroke-linecap="round" stroke-linejoin="round"/>
<polyline points="20.75,121.75 105.75,121.75" fill="none" stroke="#d94b3a" stroke-width="1.6" stroke-opacity="0.95" stroke-linecap="round" stroke-linejoin="round"/>
<polyline points="105.75,121.75 127.75,121.75" fill="none" stroke="#3a6fd9" stroke-width="1.6" stroke-opacity="0.95" stroke-linecap="round" stroke-linejoin="round"/>
<polyline points="128.5,124.25 129,124.25 129.5,124.75 129.5,126.125 129.875,126.5 130.125,126.5 130.25,126.625 130.25,126.625 130.375,126.75 130.5,126.75 130.75,127 130.75,152.75 132.25,154.25 134.625,154.25 135.75,155.375 135.75,156.5" fill="none" stroke="#d94b3a" stroke-width="1.6" stroke-opacity="0.95" stroke-linecap="round" stroke-linejoin="round"/>
<polyline points="135.75,155.25 136.75,155.25" fill="none" stroke="#d94b3a" stroke-width="1.6" stroke-opacity="0.95" stroke-linecap="round" stroke-linejoin="round"/>
<polyline points="136.75,155.25 271.75,155.25 273.25,153.75 273.25,148.5" fill="none" stroke="#3a6fd9" stroke-width="1.6" stroke-opacity="0.95" stroke-linecap="round" stroke-linejoin="round"/>
<polyline points="273.25,148.5 301.75,148.5 303.25,147 303.25,145.25" fill="none" stroke="#3a6fd9" stroke-width="1.6" stroke-opacity="0.95" stroke-linecap="round" stroke-linejoin="round"/>
<polyline points="270.5,145.5 270.5,145.375 270.375,145.25 258.5,145.25 257,143.75 257,70.25" fill="none" stroke="#d94b3a" stroke-width="1.6" stroke-opacity="0.95" stroke-linecap="round" stroke-linejoin="round"/>
<polyline points="257,70.25 255.875,70.25 254.75,69.125 254.75,26" fill="none" stroke="#3a6fd9" stroke-width="1.6" stroke-opacity="0.95" stroke-linecap="round" stroke-linejoin="round"/>
<polyline points="213.25,100.25 213.5,100.25 213.75,100.5 213.75,109.75" fill="none" stroke="#d94b3a" stroke-width="1.2" stroke-opacity="0.95" stroke-linecap="round" stroke-linejoin="round"/>
<polyline points="213.75,109.75 243.25,109.75 244.75,111.25 244.75,141" fill="none" stroke="#3a6fd9" stroke-width="1.2" stroke-opacity="0.95" stroke-linecap="round" stroke-linejoin="round"/>
<polyline points="244.75,141 244.875,141 245,141.125 245,152.75 245.25,153 245.5,153" fill="none" stroke="#d94b3a" stroke-width="1.2" stroke-opacity="0.95" stroke-linecap="round" stroke-linejoin="round"/>
<polyline points="244.75,141 244.75,141.125 244.875,141.25 322.75,141.25 324.25,142.75 324.25,150.25" fill="none" stroke="#3a6fd9" stroke-width="1.2" stroke-opacity="0.95" stroke-linecap="round" stroke-linejoin="round"/>
<polyline points="342.5,154.25 326.75,154.25" fill="none" stroke="#d94b3a" stroke-width="1.2" stroke-opacity="0.95" stroke-linecap="round" stroke-linejoin="round"/>
<polyline points="324.25,156 324.25,159.25" fill="none" stroke="#d94b3a" stroke-width="1.2" stroke-opacity="0.95" stroke-linecap="round" stroke-linejoin="round"/>
<polyline points="177.75,60.25 177.75,60.375 177.875,60.5 179.25,60.5 180.25,61.5 180.25,61.5 181.25,62.5 221.5,62.5 223,64 223,65.75 224.5,67.25 243,67.25 244.5,68.75 244.5,112 246,113.5 251.5,113.5 253,115 253,137.5" fill="none" stroke="#d94b3a" stroke-width="1.2" stroke-opacity="0.95" stroke-linecap="round" stroke-linejoin="round"/>
<polyline points="253,137.5 318,137.5" fill="none" stroke="#3a6fd9" stroke-width="1.2" stroke-opacity="0.95" stroke-linecap="round" stroke-linejoin="round"/>
<polyline points="318,137.5 318.875,137.5 319.25,137.875 319.25,137.875 319.625,138.25 323.75,138.25 324.25,138.75 324.25,139.25" fill="none" stroke="#d94b3a" stroke-width="1.2" stroke-opacity="0.95" stroke-linecap="round" stroke-linejoin="round"/>
<polyline points="253,137.5 253,137.625 253.125,137.75 253.375,137.75 253.75,138.125 253.75,143.5 254,143.75 254,143.75 254.25,144 254.25,148 255.75,149.5 257.5,149.5 259,151 259,157.5 257.5,159 255.25,159 253.75,160.5 253.75,223.5" fill="none" stroke="#d94b3a" stroke-width="1.2" stroke-opacity="0.95" stroke-linecap="round" stroke-linejoin="round"/>
<polyline points="253.75,223.5 253.75,239.25" fill="none" stroke="#3a6fd9" stroke-width="1.2" stroke-opacity="0.95" stroke-linecap="round" stroke-linejoin="round"/>
<polyline points="230.5,168.75 230.5,170.25 232,171.75 248.5,171.75 250,173.25 250,181.25" fill="none" stroke="#d94b3a" stroke-width="1.2" stroke-opacity="0.95" stroke-linecap="round" stroke-linejoin="round"/>
<polyline points="250,181.25 271.75,181.25" fill="none" stroke="#3a6fd9" stroke-width="1.2" stroke-opacity="0.95" stroke-linecap="round" stroke-linejoin="round"/>
<polyline points="271.75,181.25 271.75,181.125 271.875,181 295.25,181 296.75,179.5 296.75,152.5" fill="none" stroke="#3a6fd9" stroke-width="1.2" stroke-opacity="0.95" stroke-linecap="round" stroke-linejoin="round"/>
<polyline points="296.75,152.5 297.5,152.5 298.25,151.75 298.25,138.5 299.75,137 302.75,137 303.25,136.5 303.25,136" fill="none" stroke="#d94b3a" stroke-width="1.2" stroke-opacity="0.95" stroke-linecap="round" stroke-linejoin="round"/>
<polyline points="328,185.5 328,185.375 327.875,185.25 307.75,185.25 306.25,183.75 306.25,182 304.75,180.5 304.75,180.5 303.25,179 303.25,175.75" fill="none" stroke="#d94b3a" stroke-width="1.2" stroke-opacity="0.95" stroke-linecap="round" stroke-linejoin="round"/>
<polyline points="303.25,175.75 303.25,155.25" fill="none" stroke="#3a6fd9" stroke-width="1.2" stroke-opacity="0.95" stroke-linecap="round" stroke-linejoin="round"/>
<polyline points="306.25,185.25 306.25,188.25 304.75,189.75 299.875,189.75 299.5,190.125 299.5,190.125 299.125,190.5 272,190.5 270.5,192 270.5,212 269,213.5 259,213.5 257.5,215 257.5,220" fill="none" stroke="#d94b3a" stroke-width="1.2" stroke-opacity="0.95" stroke-linecap="round" stroke-linejoin="round"/>
<polyline points="257.5,220 241.5,220 240,221.5 240,235.75" fill="none" stroke="#3a6fd9" stroke-width="1.2" stroke-opacity="0.95" stroke-linecap="round" stroke-linejoin="round"/>
<polyline points="240,235.75 229.75,235.75" fill="none" stroke="#d94b3a" stroke-width="1.2" stroke-opacity="0.95" stroke-linecap="round" stroke-linejoin="round"/>
<polyline points="201.25,115.5 201.25,115.375 201.125,115.25 162.25,115.25 160.75,113.75 160.75,104.75" fill="none" stroke="#d94b3a" stroke-width="1.2" stroke-opacity="0.95" stroke-linecap="round" stroke-linejoin="round"/>
<polyline points="160.75,104.75 132.75,104.75" fill="none" stroke="#3a6fd9" stroke-width="1.2" stroke-opacity="0.95" stroke-linecap="round" stroke-linejoin="round"/>
<polyline points="132.75,104.75 132.75,103.25" fill="none" stroke="#d94b3a" stroke-width="1.2" stroke-opacity="0.95" stroke-linecap="round" stroke-linejoin="round"/>
<polyline points="205.75,118.75 205.75,119.5 206.5,120.25 206.75,120.25 207.25,120.75 207.25,120.75 207.75,121.25 207.875,121.25 208.5,121.875 208.5,128.375 207.875,129 207.875,129 207.25,129.625 207.25,158 206.25,159 205.75,159 205.25,159.5 205.25,159.5 204.75,160 204,160" fill="none" stroke="#d94b3a" stroke-width="1.2" stroke-opacity="0.95" stroke-linecap="round" stroke-linejoin="round"/>
<polyline points="204,160 205.75,160 207.25,161.5 207.25,187" fill="none" stroke="#3a6fd9" stroke-width="1.2" stroke-opacity="0.95" stroke-linecap="round" stroke-linejoin="round"/>
<polyline points="207.25,187 207.25,188.5" fill="none" stroke="#d94b3a" stroke-width="1.2" stroke-opacity="0.95" stroke-linecap="round" stroke-linejoin="round"/>
<polyline points="200.75,171.5 200.75,171.375 200.625,171.25 199.375,171.25 198,169.875 198,164.625 197.875,164.5 197.875,164.5 197.75,164.375 197.75,164.125 197.625,164 197.625,164 197.5,163.875 197.5,163.875 197.375,163.75 197.375,163.75 197.25,163.625 197.25,163.625 197.125,163.5 197.125,163.5 197,163.375 197,163.375 196.875,163.25 196.625,163.25 196.5,163.125 196.5,163.125 196.375,163 188,163 186.5,161.5 186.5,139.125 186.375,139 186.375,139 186.25,138.875 186.25,138.625 186.125,138.5 186.125,138.5 186,138.375 186,138.375 185.875,138.25 185.875,138.25 185.75,138.125 185.75,138.125 185.625,138 185.625,138 185.5,137.875 185.5,137.875 185.375,137.75 185.125,137.75 185,137.625 185,137.625 184.875,137.5 184.625,137.5 184.25,137.125 184.25,133.375 184.125,133.25 184.125,133.25 184,133.125 184,132.875 183.875,132.75 183.875,132.75 183.75,132.625 183.75,132.625 183.625,132.5 183.625,132.5 183.5,132.375 183.5,132.375 183.375,132.25 183.375,132.25 183.25,132.125 183.25,132.125 183.125,132 182.875,132 182.75,131.875 182.75,131.875 182.625,131.75 162.25,131.75 160.75,130.25 160.75,121.75" fill="none" stroke="#d94b3a" stroke-width="1.2" stroke-opacity="0.95" stroke-linecap="round" stroke-linejoin="round"/>
<polyline points="160.75,121.75 137.75,121.75" fill="none" stroke="#3a6fd9" stroke-width="1.2" stroke-opacity="0.95" stroke-linecap="round" stroke-linejoin="round"/>
<polyline points="137.75,121.75 131.375,121.75 131.25,121.875 131.25,121.875 131.125,122 131.125,122 131,122.125 131,123.125 130.875,123.25 130.875,123.25 130.75,123.375 130.75,123.375 130.625,123.5 130.625,123.5 130.5,123.625 130.5,123.875 130.375,124 130.375,124 130.25,124.125 130.25,124.125 130.125,124.25 130.125,124.25 130,124.375 130,124.375 129.875,124.5 129.625,124.5 129.5,124.625 129.5,124.625 129.375,124.75 129.375,124.75 129.25,124.875 129.25,124.875 129.125,125 128.125,125 128,125.125 128,125.125 127.875,125.25 109.75,125.25 108.25,126.75 108.25,144.25" fill="none" stroke="#3a6fd9" stroke-width="1.2" stroke-opacity="0.95" stroke-linecap="round" stroke-linejoin="round"/>
<polyline points="114.5,146.75 113.875,146.75 113.25,147.375 113.25,149" fill="none" stroke="#d94b3a" stroke-width="1.2" stroke-opacity="0.95" stroke-linecap="round" stroke-linejoin="round"/>
<polyline points="113.25,149 110.75,149 109.25,150.5 109.25,160.75" fill="none" stroke="#3a6fd9" stroke-width="1.2" stroke-opacity="0.95" stroke-linecap="round" stroke-linejoin="round"/>
<polyline points="117.75,141.75 117.75,141.625 117.875,141.5 125.25,141.5 126.75,140 126.75,130" fill="none" stroke="#d94b3a" stroke-width="1.2" stroke-opacity="0.95" stroke-linecap="round" stroke-linejoin="round"/>
<polyline points="126.75,130 141.25,130 142.75,128.5 142.75,125.5" fill="none" stroke="#3a6fd9" stroke-width="1.2" stroke-opacity="0.95" stroke-linecap="round" stroke-linejoin="round"/>
<polyline points="142.75,125.5 142.75,124.25" fill="none" stroke="#d94b3a" stroke-width="1.2" stroke-opacity="0.95" stroke-linecap="round" stroke-linejoin="round"/>
<polyline points="351.25,149.25 351.25,142.75 349.75,141.25 334.75,141.25 333.25,139.75 333.25,135.25" fill="none" stroke="#d94b3a" stroke-width="1.2" stroke-opacity="0.95" stroke-linecap="round" stroke-linejoin="round"/>
<polyline points="333.25,135.25 324.625,135.25 324.25,134.875 324.25,134.5" fill="none" stroke="#3a6fd9" stroke-width="1.2" stroke-opacity="0.95" stroke-linecap="round" stroke-linejoin="round"/>
<polyline points="321.5,134.25 321.5,134.125 321.375,134 309.5,134 308,132.5 308,128.5 306.5,127 286.5,127 285,125.5 285,116.75 283.5,115.25 281.5,115.25 280.25,114 280.25,112.75" fill="none" stroke="#d94b3a" stroke-width="1.2" stroke-opacity="0.95" stroke-linecap="round" stroke-linejoin="round"/>
<polyline points="327.5,135.25 327.5,149.875 327.625,150 327.625,150 327.75,150.125 327.75,150.375 327.625,150.5 327.625,150.5 327.5,150.625 327.5,151.625 327.375,151.75 327.375,151.75 327.25,151.875 327.25,151.875 327.125,152 327.125,152 327,152.125 327,152.375 326.875,152.5 326.875,152.5 326.75,152.625 326.75,152.625 326.625,152.75 326.625,152.75 326.5,152.875 326.5,152.875 326.375,153 326.125,153 326,153.125 326,153.125 325.875,153.25 325.875,153.25 325.75,153.375 325.75,153.375 325.625,153.5 324.625,153.5 324.5,153.625 324.5,153.625 324.375,153.75 321.25,153.75 319.75,155.25 319.75,216.75" fill="none" stroke="#3a6fd9" stroke-width="1.2" stroke-opacity="0.95" stroke-linecap="round" stroke-linejoin="round"/>
<polyline points="230.75,180.75 246.125,180.75 246.5,181.125 246.5,181.375 246.625,181.5 246.625,181.5 246.75,181.625 246.75,182.625 246.875,182.75 246.875,182.75 247,182.875 247,182.875 247.125,183 247.125,183 247.25,183.125 247.25,183.375 247.375,183.5 247.375,183.5 247.5,183.625 247.5,183.625 247.625,183.75 247.625,183.75 247.75,183.875 247.75,183.875 247.875,184 248.125,184 248.25,184.125 248.25,184.125 248.375,184.25 248.375,184.25 248.5,184.375 248.5,184.375 248.625,184.5 249.625,184.5 249.75,184.625 249.75,184.625 249.875,184.75 249.875,184.75 250,184.875 250,216.25" fill="none" stroke="#d94b3a" stroke-width="1.2" stroke-opacity="0.95" stroke-linecap="round" stroke-linejoin="round"/>
<polyline points="250,216.25 260.25,216.25 261.75,217.75 261.75,239.25" fill="none" stroke="#3a6fd9" stroke-width="1.2" stroke-opacity="0.95" stroke-linecap="round" stroke-linejoin="round"/>
<polyline points="261.75,239.25 261.75,239.375 261.625,239.5 260.25,239.5 258.75,241 258.75,257.625 258.625,257.75 258.625,257.75 258.5,257.875 258.5,258.375 258.375,258.5 258.375,258.5 258.25,258.625 258.25,275.25 256.75,276.75 254.75,276.75 253.25,278.25 253.25,286 254.75,287.5 257.25,287.5 258.75,289 258.75,299" fill="none" stroke="#3a6fd9" stroke-width="1.2" stroke-opacity="0.95" stroke-linecap="round" stroke-linejoin="round"/>
<polyline points="246.25,180.75 246.25,175.5" fill="none" stroke="#d94b3a" stroke-width="1.2" stroke-opacity="0.95" stroke-linecap="round" stroke-linejoin="round"/>
<polyline points="246.25,175.5 290.5,175.5 292,174 292,152.5" fill="none" stroke="#3a6fd9" stroke-width="1.2" stroke-opacity="0.95" stroke-linecap="round" stroke-linejoin="round"/>
<polyline points="292,152.5 293.125,152.5 293.25,152.375 293.25,152.375 293.375,152.25 293.375,152.25 293.5,152.125 293.5,151.125 293.625,151 293.625,151 293.75,150.875 293.75,150.875 293.875,150.75 293.875,150.75 294,150.625 294,150.375 294.125,150.25 294.125,150.25 294.25,150.125 294.25,150.125 294.375,150 294.375,150 294.5,149.875 294.5,149.875 294.625,149.75 294.875,149.75 295,149.625 295,149.625 295.125,149.5 295.125,149.5 295.25,149.375 295.25,149.375 295.375,149.25 295.5,149.25 295.75,149 295.75,136.125 295.875,136 295.875,136 296,135.875 296,135.625 296.125,135.5 296.125,135.5 296.25,135.375 296.25,135.375 296.375,135.25 296.375,135.25 296.5,135.125 296.5,135.125 296.625,135 296.625,135 296.75,134.875 296.75,134.875 296.875,134.75 297.125,134.75 297.25,134.625 297.25,134.625 297.375,134.5 297.75,134.5 298.25,134 298.25,133.25 299.5,132 302.75,132 303.25,131.5 303.25,131" fill="none" stroke="#d94b3a" stroke-width="1.2" stroke-opacity="0.95" stroke-linecap="round" stroke-linejoin="round"/>
<polyline points="157.75,221.25 159.125,221.25 160.25,222.375 160.25,222.375 161.375,223.5 175.5,223.5 177,222 177,177.25 178.5,175.75 180.5,175.75 181.75,174.5 181.75,173.25" fill="none" stroke="#d94b3a" stroke-width="1.2" stroke-opacity="0.95" stroke-linecap="round" stroke-linejoin="round"/>
<polyline points="180.25,170 180.25,147.25" fill="none" stroke="#d94b3a" stroke-width="1.2" stroke-opacity="0.95" stroke-linecap="round" stroke-linejoin="round"/>
<polyline points="178.5,147.25 177.875,147.25 177.25,147.875 177.25,148.5" fill="none" stroke="#d94b3a" stroke-width="1.2" stroke-opacity="0.95" stroke-linecap="round" stroke-linejoin="round"/>
<polyline points="177.25,148.5 165.75,148.5 164.25,147 164.25,121.625 164.125,121.5 164.125,121.5 164,121.375 164,120.375 163.875,120.25 163.875,120.25 163.75,120.125 163.75,120.125 163.625,120 163.625,120 163.5,119.875 163.5,119.625 163.375,119.5 163.375,119.5 163.25,119.375 163.25,119.375 163.125,119.25 163.125,119.25 163,119.125 163,119.125 162.875,119 162.625,119 162.5,118.875 162.5,118.875 162.375,118.75 162.375,118.75 162.25,118.625 162.25,118.625 162.125,118.5 161.125,118.5 161,118.375 161,118.375 160.875,118.25 139.25,118.25 137.75,116.75 137.75,108.5" fill="none" stroke="#3a6fd9" stroke-width="1.2" stroke-opacity="0.95" stroke-linecap="round" stroke-linejoin="round"/>
<polyline points="137.75,108.5 137.75,103.25" fill="none" stroke="#d94b3a" stroke-width="1.2" stroke-opacity="0.95" stroke-linecap="round" stroke-linejoin="round"/>
<polyline points="73,203.5 73,197 74.5,195.5 97.625,195.5 98.75,194.375 98.75,193.25" fill="none" stroke="#d94b3a" stroke-width="1.2" stroke-opacity="0.95" stroke-linecap="round" stroke-linejoin="round"/>
<polyline points="100.25,188.25 100.25,188.125 100.375,188 101,188 101.75,187.25 101.75,138.625 101.875,138.5 101.875,138.5 102,138.375 102,138.125 102.125,138 102.125,138 102.25,137.875 102.25,125.75" fill="none" stroke="#d94b3a" stroke-width="1.2" stroke-opacity="0.95" stroke-linecap="round" stroke-linejoin="round"/>
<polyline points="102.25,125.75 102.25,121.625 102.375,121.5 102.375,121.5 102.5,121.375 102.5,120.375 102.625,120.25 102.625,120.25 102.75,120.125 102.75,120.125 102.875,120 102.875,120 103,119.875 103,119.625 103.125,119.5 103.125,119.5 103.25,119.375 103.25,119.375 103.375,119.25 103.375,119.25 103.5,119.125 103.5,119.125 103.625,119 103.875,119 104,118.875 104,118.875 104.125,118.75 104.125,118.75 104.25,118.625 104.25,118.625 104.375,118.5 105.375,118.5 105.5,118.375 105.5,118.375 105.625,118.25 116.25,118.25 117.75,116.75 117.75,100.75" fill="none" stroke="#3a6fd9" stroke-width="1.2" stroke-opacity="0.95" stroke-linecap="round" stroke-linejoin="round"/>
<polyline points="98.75,195.5 99.875,195.5 101,196.625 101,199.5" fill="none" stroke="#d94b3a" stroke-width="1.2" stroke-opacity="0.95" stroke-linecap="round" stroke-linejoin="round"/>
<polyline points="101,199.5 193.5,199.5 195,201 195,249.5" fill="none" stroke="#3a6fd9" stroke-width="1.2" stroke-opacity="0.95" stroke-linecap="round" stroke-linejoin="round"/>
<polyline points="195,249.5 234.75,249.5 236.25,251 236.25,259.5" fill="none" stroke="#d94b3a" stroke-width="1.2" stroke-opacity="0.95" stroke-linecap="round" stroke-linejoin="round"/>
<polyline points="149.5,172.5 149.5,171.375 150.375,170.5 150.375,170.5 151.25,169.625 151.25,160.75 152.75,159.25 156.75,159.25 158.25,157.75 158.25,153.75" fill="none" stroke="#d94b3a" stroke-width="1.2" stroke-opacity="0.95" stroke-linecap="round" stroke-linejoin="round"/>
<polyline points="153.5,151 151,151" fill="none" stroke="#d94b3a" stroke-width="1.2" stroke-opacity="0.95" stroke-linecap="round" stroke-linejoin="round"/>
<polyline points="151,151 119.25,151 117.75,149.5 117.75,129" fill="none" stroke="#3a6fd9" stroke-width="1.2" stroke-opacity="0.95" stroke-linecap="round" stroke-linejoin="round"/>
<polyline points="117.75,129 117.75,124.25" fill="none" stroke="#d94b3a" stroke-width="1.2" stroke-opacity="0.95" stroke-linecap="round" stroke-linejoin="round"/>
<polyline points="149.5,176.75 149.5,178.25 151,179.75 158,179.75 159.5,181.25 159.5,195.75" fill="none" stroke="#d94b3a" stroke-width="1.2" stroke-opacity="0.95" stroke-linecap="round" stroke-linejoin="round"/>
<polyline points="159.5,195.75 183.75,195.75" fill="none" stroke="#3a6fd9" stroke-width="1.2" stroke-opacity="0.95" stroke-linecap="round" stroke-linejoin="round"/>
<polyline points="183.75,195.75 183.75,206 185.25,207.5 194.625,207.5 195.75,206.375 195.75,205.25" fill="none" stroke="#d94b3a" stroke-width="1.2" stroke-opacity="0.95" stroke-linecap="round" stroke-linejoin="round"/>
<polyline points="266.75,207.5 293.25,207.5 294.75,206 294.75,186.75" fill="none" stroke="#3a6fd9" stroke-width="1.2" stroke-opacity="0.95" stroke-linecap="round" stroke-linejoin="round"/>
<polyline points="294.75,206.25 307.5,206.25" fill="none" stroke="#3a6fd9" stroke-width="1.2" stroke-opacity="0.95" stroke-linecap="round" stroke-linejoin="round"/>
<polyline points="307.5,206.25 326.25,206.25 327.75,207.75 327.75,214.25" fill="none" stroke="#d94b3a" stroke-width="1.2" stroke-opacity="0.95" stroke-linecap="round" stroke-linejoin="round"/>
<polyline points="327.75,206.25 327.75,198.25" fill="none" stroke="#d94b3a" stroke-width="1.2" stroke-opacity="0.95" stroke-linecap="round" stroke-linejoin="round"/>
<polyline points="327.75,198.25 327.75,173.375 327.875,173.25 327.875,173.25 328,173.125 328,155.125 328.125,155 328.125,155 328.25,154.875 328.25,154.875 328.375,154.75 328.375,154.75 328.5,154.625 328.5,154.625 328.625,154.5 328.625,154.5 328.75,154.375 328.75,154.375 328.875,154.25 328.875,154.25 329,154.125 329,154.125 329.125,154 329.125,154 329.25,153.875 329.25,153.625 329.375,153.5 329.375,153.5 329.5,153.375 329.5,153.375 329.625,153.25 329.625,153.25 329.75,153.125 329.75,152.875 329.875,152.75 329.875,152.75 330,152.625 330,151.625 330.125,151.5 330.125,151.5 330.25,151.375 330.25,140.25 331.75,138.75 333.375,138.75 333.5,138.625 333.5,138.625 333.625,138.5 334.625,138.5 334.75,138.375 334.75,138.375 334.875,138.25 334.875,138.25 335,138.125 335,138.125 335.125,138 335.375,138 335.5,137.875 335.5,137.875 335.625,137.75 335.625,137.75 335.75,137.625 335.75,137.625 335.875,137.5 335.875,137.5 336,137.375 336,137.125 336.125,137 336.125,137 336.25,136.875 336.25,136.875 336.375,136.75 336.375,136.75 336.5,136.625 336.5,135.625 336.625,135.5 336.625,135.5 336.75,135.375 336.75,135.125 336.625,135 336.625,135 336.5,134.875 336.5,133.875 336.375,133.75 336.375,133.75 336.25,133.625 336.25,133.625 336.125,133.5 336.125,133.5 336,133.375 336,133.125 335.875,133 335.875,133 335.75,132.875 335.75,132.875 335.625,132.75 335.625,132.75 335.5,132.625 335.5,132.625 335.375,132.5 335.125,132.5 335,132.375 335,132.375 334.875,132.25 334.875,132.25 334.75,132.125 334.75,132.125 334.625,132 333.625,132 333.5,131.875 333.5,131.875 333.375,131.75 326.125,131.75 326,131.625 326,131.625 325.875,131.5 325.875,131.5 325.75,131.375 325.75,131.375 325.625,131.25 324.625,131.25 324.5,131.125 324.5,131.125 324.375,131 324.375,131 324.25,130.875 324.25,129.75" fill="none" stroke="#3a6fd9" stroke-width="1.2" stroke-opacity="0.95" stroke-linecap="round" stroke-linejoin="round"/>
<polyline points="270.5,207.5 270.5,232.375 270.625,232.5 270.625,232.5 270.75,232.625 270.75,257.125 270.875,257.25 270.875,257.25 271,257.375 271,261.875 270.875,262 270.875,262 270.75,262.125 270.75,262.625 270.625,262.75 270.625,262.75 270.5,262.875 270.5,263.125 270.375,263.25 270.375,263.25 270.25,263.375 270.25,263.625 270.125,263.75 270.125,263.75 270,263.875 270,263.875 269.875,264 269.875,264 269.75,264.125 269.75,264.125 269.625,264.25 269.625,264.25 269.5,264.375 269.5,264.625 269.375,264.75 269.375,264.75 269.25,264.875 269.25,264.875 269.125,265 268.875,265 268.75,265.125 268.75,265.125 268.625,265.25 268.625,265.25 268.5,265.375 268.5,265.375 268.375,265.5 268.375,265.5 268.25,265.625 268.25,265.625 268.125,265.75 267.875,265.75 267.75,265.875 267.75,265.875 267.625,266 267.375,266 267.25,266.125 267.25,266.125 267.125,266.25 266.625,266.25 266.5,266.375 266.5,266.375 266.375,266.5 262.25,266.5 260.75,268 260.75,277.625 260.625,277.75 260.625,277.75 260.5,277.875 260.5,278.125 260.375,278.25 260.375,278.25 260.25,278.375 260.25,278.375 260.125,278.5 260.125,278.5 260,278.625 260,278.625 259.875,278.75 259.875,278.75 259.75,278.875 259.75,279" fill="none" stroke="#3a6fd9" stroke-width="1.2" stroke-opacity="0.95" stroke-linecap="round" stroke-linejoin="round"/>
<polyline points="180.75,181.25 180.75,181.5" fill="none" stroke="#d94b3a" stroke-width="1.2" stroke-opacity="0.95" stroke-linecap="round" stroke-linejoin="round"/>
<polyline points="180.75,181.5 173.25,181.5" fill="none" stroke="#3a6fd9" stroke-width="1.2" stroke-opacity="0.95" stroke-linecap="round" stroke-linejoin="round"/>
<polyline points="173.25,181.5 173.25,182.25 173.75,182.75 173.75,182.75 174.25,183.25 174.25,190.75" fill="none" stroke="#d94b3a" stroke-width="1.2" stroke-opacity="0.95" stroke-linecap="round" stroke-linejoin="round"/>
<polyline points="180.75,181.5 180.75,194.125 180.625,194.25 180.625,194.25 180.5,194.375 180.5,195.375 180.375,195.5 180.375,195.5 180.25,195.625 180.25,195.875 180.375,196 180.375,196 180.5,196.125 180.5,197.125 180.625,197.25 180.625,197.25 180.75,197.375 180.75,197.375 180.875,197.5 180.875,197.5 181,197.625 181,197.875 181.125,198 181.125,198 181.25,198.125 181.25,208.375 181.375,208.5 181.375,208.5 181.5,208.625 181.5,208.875 181.625,209 181.625,209 181.75,209.125 181.75,209.125 181.875,209.25 181.875,209.25 182,209.375 182,209.375 182.125,209.5 182.125,209.5 182.25,209.625 182.25,209.625 182.375,209.75 182.625,209.75 182.75,209.875 182.75,209.875 182.875,210 194.25,210" fill="none" stroke="#d94b3a" stroke-width="1.2" stroke-opacity="0.95" stroke-linecap="round" stroke-linejoin="round"/>
<polyline points="184.25,178 185.25,178" fill="none" stroke="#d94b3a" stroke-width="1.2" stroke-opacity="0.95" stroke-linecap="round" stroke-linejoin="round"/>
<polyline points="185.25,178 185.25,160.75 186.75,159.25 190.25,159.25" fill="none" stroke="#3a6fd9" stroke-width="1.2" stroke-opacity="0.95" stroke-linecap="round" stroke-linejoin="round"/>
<polyline points="190.25,159.25 189.625,159.25 189,158.625 189,138.125 188.875,138 188.875,138 188.75,137.875 188.75,137.625 188.625,137.5 188.625,137.5 188.5,137.375 188.5,137.125 188.375,137 188.375,137 188.25,136.875 188.25,136.875 188.125,136.75 188.125,136.75 188,136.625 188,136.625 187.875,136.5 187.875,136.5 187.75,136.375 187.75,136.375 187.625,136.25 187.625,136.25 187.5,136.125 187.5,136.125 187.375,136 187.375,136 187.25,135.875 187.25,135.875 187.125,135.75 187.125,135.75 187,135.625 187,135.625 186.875,135.5 186.875,135.5 186.75,135.375 186.75,132.375 186.625,132.25 186.625,132.25 186.5,132.125 186.5,131.875 186.375,131.75 186.375,131.75 186.25,131.625 186.25,131.375 186.125,131.25 186.125,131.25 186,131.125 186,131.125 185.875,131 185.875,131 185.75,130.875 185.75,130.875 185.625,130.75 185.625,130.75 185.5,130.625 185.5,130.625 185.375,130.5 185.375,130.5 185.25,130.375 185.25,130.375 185.125,130.25 185.125,130.25 185,130.125 185,130.125 184.875,130 184.875,130 184.75,129.875 184.75,129.875 184.625,129.75 184.375,129.75 184.25,129.625 184.25,129.625 184.125,129.5 183.875,129.5 183.75,129.375 183.75,129.375 183.625,129.25 169.25,129.25 167.75,127.75 167.75,119" fill="none" stroke="#d94b3a" stroke-width="1.2" stroke-opacity="0.95" stroke-linecap="round" stroke-linejoin="round"/>
<polyline points="167.75,119 166.375,119 166.25,118.875 166.25,118.875 166.125,118.75 166.125,118.75 166,118.625 166,118.625 165.875,118.5 165.875,118.5 165.75,118.375 165.75,118.125 165.625,118 165.625,118 165.5,117.875 165.5,117.875 165.375,117.75 165.375,117.75 165.25,117.625 165.25,117.625 165.125,117.5 165.125,117.5 165,117.375 165,117.375 164.875,117.25 164.875,117.25 164.75,117.125 164.75,117.125 164.625,117 164.625,117 164.5,116.875 164.5,116.875 164.375,116.75 164.125,116.75 164,116.625 164,116.625 163.875,116.5 163.875,116.5 163.75,116.375 163.75,116.375 163.625,116.25 163.375,116.25 163.25,116.125 163.25,116.125 163.125,116 162.125,116 162,115.875 162,115.875 161.875,115.75 144.25,115.75 142.75,114.25 142.75,108.5" fill="none" stroke="#3a6fd9" stroke-width="1.2" stroke-opacity="0.95" stroke-linecap="round" stroke-linejoin="round"/>
<polyline points="142.75,108.5 142.75,103.25" fill="none" stroke="#d94b3a" stroke-width="1.2" stroke-opacity="0.95" stroke-linecap="round" stroke-linejoin="round"/>
<polyline points="181.5,209 180.5,209 179.5,210 179.5,224.375 179.375,224.5 179.375,224.5 179.25,224.625 179.25,224.875 179.125,225 179.125,225 179,225.125 179,225.125 178.875,225.25 178.875,225.25 178.75,225.375 178.75,225.375 178.625,225.5 178.625,225.5 178.5,225.625 178.5,225.625 178.375,225.75 178.125,225.75 178,225.875 178,225.875 177.875,226 152,226 151.5,226.5 151.5,226.5 151,227 117.75,227 116.25,228.5 116.25,263.875 116.375,264 116.375,264 116.5,264.125 116.5,273 115,274.5 100.25,274.5 98.75,276 98.75,279" fill="none" stroke="#d94b3a" stroke-width="1.2" stroke-opacity="0.95" stroke-linecap="round" stroke-linejoin="round"/>
<polyline points="149.75,188.75 149.75,194 151,195.25 151,195.25 152.25,196.5 152.25,199.875 153.375,201 153.375,201 154.5,202.125 154.5,205.125 155.125,205.75 155.75,205.75" fill="none" stroke="#d94b3a" stroke-width="1.2" stroke-opacity="0.95" stroke-linecap="round" stroke-linejoin="round"/>
<polyline points="155.75,205.75 142.75,205.75" fill="none" stroke="#3a6fd9" stroke-width="1.2" stroke-opacity="0.95" stroke-linecap="round" stroke-linejoin="round"/>
<polyline points="155.75,205.75 155.75,205.875 155.875,206 163.125,206 164.25,207.125 164.25,207.5 165,208.25 165,208.25 165.75,209 165.75,216.25" fill="none" stroke="#d94b3a" stroke-width="1.2" stroke-opacity="0.95" stroke-linecap="round" stroke-linejoin="round"/>
<polyline points="149.75,184.5 155.25,184.5 155.75,184 155.75,183.5" fill="none" stroke="#d94b3a" stroke-width="1.2" stroke-opacity="0.95" stroke-linecap="round" stroke-linejoin="round"/>
<polyline points="155.75,183.5 157,183.5 158.25,182.25 158.25,163.75" fill="none" stroke="#3a6fd9" stroke-width="1.2" stroke-opacity="0.95" stroke-linecap="round" stroke-linejoin="round"/>
<polyline points="158.25,183.5 170.375,183.5 170.5,183.625 170.5,183.625 170.625,183.75 170.625,183.75 170.75,183.875 170.75,183.875 170.875,184 170.875,184 171,184.125 171,184.125 171.125,184.25 171.375,184.25 171.5,184.375 171.5,184.375 171.625,184.5 171.625,184.5 171.75,184.625 171.75,184.625 171.875,184.75 172.875,184.75 173,184.875 173,184.875 173.125,185 201.75,185 203.25,183.5 203.25,165.25" fill="none" stroke="#3a6fd9" stroke-width="1.2" stroke-opacity="0.95" stroke-linecap="round" stroke-linejoin="round"/>
<polyline points="158.25,163.75 158.25,163.625 158.125,163.5 123,163.5 121.5,162 121.5,154.75" fill="none" stroke="#3a6fd9" stroke-width="1.2" stroke-opacity="0.95" stroke-linecap="round" stroke-linejoin="round"/>
<polyline points="121.5,154.75 121.5,145.25" fill="none" stroke="#d94b3a" stroke-width="1.2" stroke-opacity="0.95" stroke-linecap="round" stroke-linejoin="round"/>
<polyline points="121.5,145.25 121.5,132.5" fill="none" stroke="#3a6fd9" stroke-width="1.2" stroke-opacity="0.95" stroke-linecap="round" stroke-linejoin="round"/>
<polyline points="121.5,132.5 114.25,132.5 112.75,131 112.75,124.25" fill="none" stroke="#d94b3a" stroke-width="1.2" stroke-opacity="0.95" stroke-linecap="round" stroke-linejoin="round"/>
<polyline points="190.25,91 190.25,90.75 190,90.5 170,90.5 169.25,89.75 169.25,89" fill="none" stroke="#d94b3a" stroke-width="1.2" stroke-opacity="0.95" stroke-linecap="round" stroke-linejoin="round"/>
<polyline points="169.25,89 128.75,89 127.25,87.5 127.25,85.75" fill="none" stroke="#3a6fd9" stroke-width="1.2" stroke-opacity="0.95" stroke-linecap="round" stroke-linejoin="round"/>
<polyline points="297.25,196.25 297.25,196.375 297.375,196.5 302.5,196.5 304,198 304,206.375 304.125,206.5 304.125,206.5 304.25,206.625 304.25,207.625 304.375,207.75 304.375,207.75 304.5,207.875 304.5,207.875 304.625,208 304.625,208 304.75,208.125 304.75,208.375 304.875,208.5 304.875,208.5 305,208.625 305,208.625 305.125,208.75 305.125,208.75 305.25,208.875 305.25,208.875 305.375,209 305.625,209 305.75,209.125 305.75,209.125 305.875,209.25 305.875,209.25 306,209.375 306,209.375 306.125,209.5 307.125,209.5 307.25,209.625 307.25,209.625 307.375,209.75 314.25,209.75 315.75,211.25 315.75,220 317.25,221.5 336.5,221.5 338,223 338,273 339.5,274.5 347.25,274.5 348.75,276 348.75,278.75" fill="none" stroke="#d94b3a" stroke-width="1.2" stroke-opacity="0.95" stroke-linecap="round" stroke-linejoin="round"/>
<polyline points="194.25,221.25 190.25,221.25 188.75,222.75 188.75,254.75" fill="none" stroke="#d94b3a" stroke-width="1.2" stroke-opacity="0.95" stroke-linecap="round" stroke-linejoin="round"/>
<polyline points="188.75,254.75 188.75,278.75" fill="none" stroke="#3a6fd9" stroke-width="1.2" stroke-opacity="0.95" stroke-linecap="round" stroke-linejoin="round"/>
<polyline points="115.5,163.25 114.125,163.25 113,164.375 113,164.375 111.875,165.5 110,165.5 108.5,167 108.5,187.75" fill="none" stroke="#d94b3a" stroke-width="1.2" stroke-opacity="0.95" stroke-linecap="round" stroke-linejoin="round"/>
<polyline points="108.5,187.75 30.25,187.75 28.75,189.25 28.75,278.75" fill="none" stroke="#3a6fd9" stroke-width="1.2" stroke-opacity="0.95" stroke-linecap="round" stroke-linejoin="round"/>
<polyline points="230,113.5 221.25,113.5" fill="none" stroke="#d94b3a" stroke-width="1.2" stroke-opacity="0.95" stroke-linecap="round" stroke-linejoin="round"/>
<polyline points="221.25,113.5 165.75,113.5 164.25,112 164.25,104.625 164.125,104.5 164.125,104.5 164,104.375 164,103.375 163.875,103.25 163.875,103.25 163.75,103.125 163.75,103.125 163.625,103 163.625,103 163.5,102.875 163.5,102.625 163.375,102.5 163.375,102.5 163.25,102.375 163.25,102.375 163.125,102.25 163.125,102.25 163,102.125 163,102.125 162.875,102 162.625,102 162.5,101.875 162.5,101.875 162.375,101.75 162.375,101.75 162.25,101.625 162.25,101.625 162.125,101.5 161.75,101.5 161.25,101 161.25,100.625 161.125,100.5 161.125,100.5 161,100.375 161,99.375 160.875,99.25 160.875,99.25 160.75,99.125 160.75,99.125 160.625,99 160.625,99 160.5,98.875 160.5,98.625 160.375,98.5 160.375,98.5 160.25,98.375 160.25,98.375 160.125,98.25 160.125,98.25 160,98.125 160,98.125 159.875,98 159.625,98 159.5,97.875 159.5,97.875 159.375,97.75 159.375,97.75 159.25,97.625 159.25,97.625 159.125,97.5 158.125,97.5 158,97.375 158,97.375 157.875,97.25 94.75,97.25 93.25,95.75 93.25,28" fill="none" stroke="#3a6fd9" stroke-width="1.2" stroke-opacity="0.95" stroke-linecap="round" stroke-linejoin="round"/>
<polyline points="43.5,150 38.75,150 37.25,148.5 37.25,125.75" fill="none" stroke="#d94b3a" stroke-width="1.2" stroke-opacity="0.95" stroke-linecap="round" stroke-linejoin="round"/>
<polyline points="37.25,125.75 37.25,28" fill="none" stroke="#3a6fd9" stroke-width="1.2" stroke-opacity="0.95" stroke-linecap="round" stroke-linejoin="round"/>
<polyline points="293.25,238.75 293.25,238.875 293.375,239 299.75,239 300.75,240 300.75,240 301.75,241 332.5,241 334,242.5 334,276.5" fill="none" stroke="#d94b3a" stroke-width="1.2" stroke-opacity="0.95" stroke-linecap="round" stroke-linejoin="round"/>
<polyline points="334,276.5 357.625,276.5 358.75,277.625 358.75,278.75" fill="none" stroke="#3a6fd9" stroke-width="1.2" stroke-opacity="0.95" stroke-linecap="round" stroke-linejoin="round"/>
<polyline points="33.75,159.25 33.75,159.375 33.875,159.5 37.25,159.5 38.75,161 38.75,262.75" fill="none" stroke="#d94b3a" stroke-width="1.2" stroke-opacity="0.95" stroke-linecap="round" stroke-linejoin="round"/>
<polyline points="38.75,262.75 38.75,278.75" fill="none" stroke="#3a6fd9" stroke-width="1.2" stroke-opacity="0.95" stroke-linecap="round" stroke-linejoin="round"/>
<polyline points="273.75,174.75 273.75,175.5 274.5,176.25 277.25,176.25 278.75,177.75 278.75,186.75" fill="none" stroke="#d94b3a" stroke-width="1.2" stroke-opacity="0.95" stroke-linecap="round" stroke-linejoin="round"/>
<polyline points="278.75,186.75 278.75,203.75" fill="none" stroke="#3a6fd9" stroke-width="1.2" stroke-opacity="0.95" stroke-linecap="round" stroke-linejoin="round"/>
<polyline points="278.75,203.75 278.75,223.5" fill="none" stroke="#d94b3a" stroke-width="1.2" stroke-opacity="0.95" stroke-linecap="round" stroke-linejoin="round"/>
<polyline points="278.75,223.5 278.75,279" fill="none" stroke="#3a6fd9" stroke-width="1.2" stroke-opacity="0.95" stroke-linecap="round" stroke-linejoin="round"/>
<polyline points="281.75,282.25 295.5,282.25" fill="none" stroke="#3a6fd9" stroke-width="1.2" stroke-opacity="0.95" stroke-linecap="round" stroke-linejoin="round"/>
<polyline points="229.25,229.25 229.25,230 230,230.75 248.25,230.75 249.75,232.25 249.75,242.5 251.25,244 273,244 274.5,245.5 274.5,255" fill="none" stroke="#d94b3a" stroke-width="1.2" stroke-opacity="0.95" stroke-linecap="round" stroke-linejoin="round"/>
<polyline points="274.5,255 274.5,276.125 273.875,276.75 273.875,276.75 273.25,277.375 273.25,286 274.75,287.5 277.25,287.5 278.75,289 278.75,299" fill="none" stroke="#3a6fd9" stroke-width="1.2" stroke-opacity="0.95" stroke-linecap="round" stroke-linejoin="round"/>
<polyline points="281.75,302.25 295.5,302.25" fill="none" stroke="#3a6fd9" stroke-width="1.2" stroke-opacity="0.95" stroke-linecap="round" stroke-linejoin="round"/>
<polyline points="257.5,209.75 244.5,209.75 243,211.25 243,213.75" fill="none" stroke="#3a6fd9" stroke-width="1.2" stroke-opacity="0.95" stroke-linecap="round" stroke-linejoin="round"/>
<polyline points="243,213.75 242.375,213.75 241.75,214.375 241.75,214.375 241.125,215 226.75,215" fill="none" stroke="#d94b3a" stroke-width="1.2" stroke-opacity="0.95" stroke-linecap="round" stroke-linejoin="round"/>
<polyline points="220.5,216.25 202.75,216.25" fill="none" stroke="#3a6fd9" stroke-width="1.2" stroke-opacity="0.95" stroke-linecap="round" stroke-linejoin="round"/>
<polyline points="202.75,216.25 201.75,216.25 201.5,216 201.5,216 201.25,215.75 184.75,215.75 183.25,217.25 183.25,222.25" fill="none" stroke="#d94b3a" stroke-width="1.2" stroke-opacity="0.95" stroke-linecap="round" stroke-linejoin="round"/>
<polyline points="183.25,222.25 147.75,222.25" fill="none" stroke="#3a6fd9" stroke-width="1.2" stroke-opacity="0.95" stroke-linecap="round" stroke-linejoin="round"/>
<polyline points="92.25,191.75 93.5,191.75" fill="none" stroke="#d94b3a" stroke-width="1.2" stroke-opacity="0.95" stroke-linecap="round" stroke-linejoin="round"/>
<polyline points="93.5,191.75 96,191.75 97.5,193.25 97.5,199.625 97.625,199.75 97.625,199.75 97.75,199.875 97.75,200.875 97.875,201 97.875,201 98,201.125 98,201.125 98.125,201.25 98.125,201.25 98.25,201.375 98.25,201.625 98.375,201.75 98.375,201.75 98.5,201.875 98.5,201.875 98.625,202 98.625,202 98.75,202.125 98.75,202.125 98.875,202.25 99.125,202.25 99.25,202.375 99.25,202.375 99.375,202.5 99.375,202.5 99.5,202.625 99.5,202.625 99.625,202.75 100.625,202.75 100.75,202.875 100.75,202.875 100.875,203 117.25,203 118.75,204.5 118.75,279" fill="none" stroke="#3a6fd9" stroke-width="1.2" stroke-opacity="0.95" stroke-linecap="round" stroke-linejoin="round"/>
<polyline points="121.75,282.25 135.5,282.25" fill="none" stroke="#3a6fd9" stroke-width="1.2" stroke-opacity="0.95" stroke-linecap="round" stroke-linejoin="round"/>
<polyline points="187.5,203.75 160.375,203.75 159.25,204.875 159.25,205.875 159.125,206 159.125,206 159,206.125 159,207.125 158.875,207.25 158.875,207.25 158.75,207.375 158.75,207.375 158.625,207.5 158.625,207.5 158.5,207.625 158.5,207.875 158.375,208 158.375,208 158.25,208.125 158.25,208.125 158.125,208.25 158.125,208.25 158,208.375 158,208.375 157.875,208.5 157.625,208.5 157.5,208.625 157.5,208.625 157.375,208.75 157.375,208.75 157.25,208.875 157.25,208.875 157.125,209 156.125,209 156,209.125 156,209.125 155.875,209.25 145,209.25 143.5,210.75 143.5,259.375 143.625,259.5 143.625,259.5 143.75,259.625 143.75,276.625 143.875,276.75 143.875,276.75 144,276.875 144,286 142.5,287.5 140.25,287.5 138.75,289 138.75,299" fill="none" stroke="#3a6fd9" stroke-width="1.2" stroke-opacity="0.95" stroke-linecap="round" stroke-linejoin="round"/>
<polyline points="135.5,302.25 121.75,302.25" fill="none" stroke="#d94b3a" stroke-width="1.2" stroke-opacity="0.95" stroke-linecap="round" stroke-linejoin="round"/>
<polyline points="166.25,195.75 166.25,204.375 166.375,204.5 166.375,204.5 166.5,204.625 166.5,204.875 166.625,205 166.625,205 166.75,205.125 166.75,205.625 166.875,205.75 166.875,205.75 167,205.875 167,205.875 167.125,206 167.25,206 167.5,206.25 167.5,206.25 167.75,206.5 167.75,206.5 168,206.75 168,206.75 168.25,207 169.25,207 169.5,207.25 169.5,207.5" fill="none" stroke="#d94b3a" stroke-width="1.2" stroke-opacity="0.95" stroke-linecap="round" stroke-linejoin="round"/>
<polyline points="169.5,207.5 161.875,207.5 161.5,207.875 161.5,208.125 161.375,208.25 161.375,208.25 161.25,208.375 161.25,208.625 161.125,208.75 161.125,208.75 161,208.875 161,208.875 160.875,209 160.875,209 160.75,209.125 160.75,209.375 160.625,209.5 160.625,209.5 160.5,209.625 160.5,209.625 160.375,209.75 160.375,209.75 160.25,209.875 160.25,209.875 160.125,210 160.125,210 160,210.125 160,210.125 159.875,210.25 159.875,210.25 159.75,210.375 159.75,210.375 159.625,210.5 159.625,210.5 159.5,210.625 159.5,210.625 159.375,210.75 159.125,210.75 159,210.875 159,210.875 158.875,211 158.875,211 158.75,211.125 158.75,211.125 158.625,211.25 158.375,211.25 158.25,211.375 158.25,211.375 158.125,211.5 157.125,211.5 157,211.625 157,211.625 156.875,211.75 151.375,211.75 150.75,212.375 150.75,213" fill="none" stroke="#3a6fd9" stroke-width="1.2" stroke-opacity="0.95" stroke-linecap="round" stroke-linejoin="round"/>
<polyline points="150.75,213 150.75,208.25" fill="none" stroke="#d94b3a" stroke-width="1.2" stroke-opacity="0.95" stroke-linecap="round" stroke-linejoin="round"/>
<polyline points="169.5,207.5 169.5,217.25 171,218.75 183.375,218.75 183.5,218.875 183.5,218.875 183.625,219 184.625,219 184.75,219.125 184.75,219.125 184.875,219.25 184.875,219.25 185,219.375 185,219.375 185.125,219.5 185.375,219.5 185.5,219.625 185.5,219.625 185.625,219.75 185.625,219.75 185.75,219.875 185.75,219.875 185.875,220 185.875,220 186,220.125 186,220.375 186.125,220.5 186.125,220.5 186.25,220.625 186.25,220.625 186.375,220.75 186.375,220.75 186.5,220.875 186.5,221.875 186.625,222 186.625,222 186.75,222.125 186.75,222.375 186.625,222.5 186.625,222.5 186.5,222.625 186.5,223.625 186.375,223.75 186.375,223.75 186.25,223.875 186.25,223.875 186.125,224 186.125,224 186,224.125 186,224.375 185.875,224.5 185.875,224.5 185.75,224.625 185.75,224.625 185.625,224.75 185.625,224.75 185.5,224.875 185.5,224.875 185.375,225 185.125,225 185,225.125 185,225.125 184.875,225.25 184.875,225.25 184.75,225.375 184.75,225.375 184.625,225.5 183.625,225.5 183.5,225.625 183.5,225.625 183.375,225.75 148.75,225.75 147.25,227.25 147.25,230.75" fill="none" stroke="#3a6fd9" stroke-width="1.2" stroke-opacity="0.95" stroke-linecap="round" stroke-linejoin="round"/>
<polyline points="147.25,230.75 122.5,230.75" fill="none" stroke="#d94b3a" stroke-width="1.2" stroke-opacity="0.95" stroke-linecap="round" stroke-linejoin="round"/>
<polyline points="122.5,230.75 122.5,223.25" fill="none" stroke="#3a6fd9" stroke-width="1.2" stroke-opacity="0.95" stroke-linecap="round" stroke-linejoin="round"/>
<polyline points="122.5,223.25 96,223.25 94.5,224.75 94.5,232.25" fill="none" stroke="#d94b3a" stroke-width="1.2" stroke-opacity="0.95" stroke-linecap="round" stroke-linejoin="round"/>
<polyline points="94.5,232.25 67.25,232.25" fill="none" stroke="#3a6fd9" stroke-width="1.2" stroke-opacity="0.95" stroke-linecap="round" stroke-linejoin="round"/>
<polyline points="273.25,137.5 273.25,133.75" fill="none" stroke="#d94b3a" stroke-width="1.6" stroke-opacity="0.95" stroke-linecap="round" stroke-linejoin="round"/>
<polyline points="253.5,156.5 252.25,156.5 251,157.75 251,157.75 249.75,159 244.75,159 243.25,157.5 243.25,154.875 243.125,154.75 243.125,154.75 243,154.625 243,154.625 242.875,154.5 242.875,154.5 242.75,154.375 242.75,154.125 242.625,154 242.625,154 242.5,153.875 242.5,143.625 242.375,143.5 242.375,143.5 242.25,143.375 242.25,143.375 242.125,143.25 242.125,143.25 242,143.125 242,142.875 241.875,142.75 241.875,142.75 241.75,142.625 241.75,142.625 241.625,142.5 241.625,142.5 241.5,142.375 241.5,141.375 241.375,141.25 241.375,141.25 241.25,141.125 241.25,140.875 241.375,140.75 241.375,140.75 241.5,140.625 241.5,139.625 241.625,139.5 241.625,139.5 241.75,139.375 241.75,139.375 241.875,139.25 241.875,139.25 242,139.125 242,138.875 242.125,138.75 242.125,138.75 242.25,138.625 242.25,138.625 242.375,138.5 242.375,138.5 242.5,138.375 242.5,138.375 242.625,138.25 242.875,138.25 243,138.125 243,138.125 243.125,138 243.125,138 243.25,137.875 243.25,137.875 243.375,137.75 244.375,137.75 244.5,137.625 244.5,137.625 244.625,137.5 247.75,137.5 248.5,136.75 248.5,136" fill="none" stroke="#d94b3a" stroke-width="1.6" stroke-opacity="0.95" stroke-linecap="round" stroke-linejoin="round"/>
<polyline points="201.25,126.75 187.75,126.75" fill="none" stroke="#d94b3a" stroke-width="1.6" stroke-opacity="0.95" stroke-linecap="round" stroke-linejoin="round"/>
<polyline points="187.75,126.75 172.625,126.75 172.25,127.125 172.25,127.375 172.125,127.5 172.125,127.5 172,127.625 172,127.625 171.875,127.75 171.75,127.75 171.5,128 171.5,128.625 171.375,128.75 171.375,128.75 171.25,128.875 171.25,130.125 170.875,130.5 170.875,130.5 170.5,130.875 170.5,131.625 170.375,131.75 170.375,131.75 170.25,131.875 170.25,133.125 170.125,133.25 170.125,133.25 170,133.375 170,133.625 169.625,134 169.5,134 169,134.5 169,136.125 168.875,136.25 168.875,136.25 168.75,136.375 168.75,138" fill="none" stroke="#3a6fd9" stroke-width="1.6" stroke-opacity="0.95" stroke-linecap="round" stroke-linejoin="round"/>
<rect x="188.65" y="90.65" width="8" height="10" fill="#e8c069" rx="0.3"/>
<rect x="205.65" y="90.65" width="8" height="10" fill="#e8c069" rx="0.3"/>
<rect x="221.15" y="164.15" width="10" height="5" fill="#e8c069" rx="0.3"/>
<rect x="221.15" y="176.15" width="10" height="5" fill="#e8c069" rx="0.3"/>
<rect x="11.15" y="101.15" width="10" height="8" fill="#e8c069" rx="0.3"/>
<rect x="11.15" y="118.15" width="10" height="8" fill="#e8c069" rx="0.3"/>
<rect x="285.65" y="229.15" width="8" height="10" fill="#e8c069" rx="0.3"/>
<rect x="302.65" y="229.15" width="8" height="10" fill="#e8c069" rx="0.3"/>
<rect x="229.65" y="96.15" width="10" height="8" fill="#e8c069" rx="0.3"/>
<rect x="229.65" y="113.15" width="10" height="8" fill="#e8c069" rx="0.3"/>
<rect x="26.15" y="149.65" width="8" height="10" fill="#e8c069" rx="0.3"/>
<rect x="43.15" y="149.65" width="8" height="10" fill="#e8c069" rx="0.3"/>
<rect x="327.65" y="185.15" width="5" height="10" fill="#e8c069" rx="0.3"/>
<rect x="339.65" y="185.15" width="5" height="10" fill="#e8c069" rx="0.3"/>
<rect x="70.65" y="203.15" width="5" height="10" fill="#e8c069" rx="0.3"/>
<rect x="82.65" y="203.15" width="5" height="10" fill="#e8c069" rx="0.3"/>
<rect x="231.15" y="259.15" width="10" height="5" fill="#e8c069" rx="0.3"/>
<rect x="231.15" y="271.15" width="10" height="5" fill="#e8c069" rx="0.3"/>
<rect x="140.15" y="172.15" width="10" height="5" fill="#e8c069" rx="0.3"/>
<rect x="140.15" y="184.15" width="10" height="5" fill="#e8c069" rx="0.3"/>
<rect x="153.15" y="149.15" width="10" height="5" fill="#e8c069" rx="0.3"/>
<rect x="153.15" y="161.15" width="10" height="5" fill="#e8c069" rx="0.3"/>
<rect x="340.35" y="117.15" width="5.6" height="4" fill="#e8c069" rx="0.3"/>
<rect x="340.35" y="125.15" width="5.6" height="4" fill="#e8c069" rx="0.3"/>
<rect x="270.35" y="137.15" width="5.6" height="4" fill="#e8c069" rx="0.3"/>
<rect x="270.35" y="145.15" width="5.6" height="4" fill="#e8c069" rx="0.3"/>
<rect x="160.35" y="82.65" width="5.6" height="4" fill="#e8c069" rx="0.3"/>
<rect x="160.35" y="90.65" width="5.6" height="4" fill="#e8c069" rx="0.3"/>
<rect x="132.85" y="148.15" width="5.6" height="4" fill="#e8c069" rx="0.3"/>
<rect x="132.85" y="156.15" width="5.6" height="4" fill="#e8c069" rx="0.3"/>
<rect x="327.15" y="21.65" width="10" height="8" fill="#e8c069" rx="0.3"/>
<rect x="327.15" y="38.65" width="10" height="8" fill="#e8c069" rx="0.3"/>
<rect x="222.65" y="18.15" width="8" height="8" fill="#e8c069" rx="0.3"/>
<circle cx="226.65" cy="22.15" r="1" fill="#0b3d2e"/>
<rect x="236.65" y="18.15" width="8" height="8" fill="#e8c069" rx="0.3"/>
<circle cx="240.65" cy="22.15" r="1" fill="#0b3d2e"/>
<rect x="250.65" y="18.15" width="8" height="8" fill="#e8c069" rx="0.3"/>
<circle cx="254.65" cy="22.15" r="1" fill="#0b3d2e"/>
<rect x="123.15" y="78.15" width="8" height="8" fill="#e8c069" rx="0.3"/>
<circle cx="127.15" cy="82.15" r="1" fill="#0b3d2e"/>
<rect x="123.15" y="64.15" width="8" height="8" fill="#e8c069" rx="0.3"/>
<circle cx="127.15" cy="68.15" r="1" fill="#0b3d2e"/>
<rect x="145.3" y="20.15" width="8" height="8" fill="#e8c069" rx="0.3"/>
<circle cx="149.3" cy="24.15" r="1" fill="#0b3d2e"/>
<rect x="159.3" y="20.15" width="8" height="8" fill="#e8c069" rx="0.3"/>
<circle cx="163.3" cy="24.15" r="1" fill="#0b3d2e"/>
<rect x="89.3" y="20.15" width="8" height="8" fill="#e8c069" rx="0.3"/>
<circle cx="93.3" cy="24.15" r="1" fill="#0b3d2e"/>
<rect x="103.3" y="20.15" width="8" height="8" fill="#e8c069" rx="0.3"/>
<circle cx="107.3" cy="24.15" r="1" fill="#0b3d2e"/>
<rect x="33.3" y="20.15" width="8" height="8" fill="#e8c069" rx="0.3"/>
<circle cx="37.3" cy="24.15" r="1" fill="#0b3d2e"/>
<rect x="47.3" y="20.15" width="8" height="8" fill="#e8c069" rx="0.3"/>
<circle cx="51.3" cy="24.15" r="1" fill="#0b3d2e"/>
<rect x="245.15" y="151.35" width="4" height="5.6" fill="#e8c069" rx="0.3"/>
<rect x="253.15" y="151.35" width="4" height="5.6" fill="#e8c069" rx="0.3"/>
<rect x="256.65" y="205.85" width="4" height="5.6" fill="#e8c069" rx="0.3"/>
<rect x="264.65" y="205.85" width="4" height="5.6" fill="#e8c069" rx="0.3"/>
<rect x="137.65" y="219.35" width="4" height="5.6" fill="#e8c069" rx="0.3"/>
<rect x="145.65" y="219.35" width="4" height="5.6" fill="#e8c069" rx="0.3"/>
<rect x="154.15" y="215.85" width="4" height="5.6" fill="#e8c069" rx="0.3"/>
<rect x="162.15" y="215.85" width="4" height="5.6" fill="#e8c069" rx="0.3"/>
<rect x="200.85" y="115.15" width="5.6" height="4" fill="#e8c069" rx="0.3"/>
<rect x="200.85" y="123.15" width="5.6" height="4" fill="#e8c069" rx="0.3"/>
<rect x="204.35" y="188.15" width="5.6" height="4" fill="#e8c069" rx="0.3"/>
<rect x="204.35" y="196.15" width="5.6" height="4" fill="#e8c069" rx="0.3"/>
<rect x="170.15" y="141.85" width="4" height="5.6" fill="#e8c069" rx="0.3"/>
<rect x="178.15" y="141.85" width="4" height="5.6" fill="#e8c069" rx="0.3"/>
<rect x="178.85" y="169.65" width="5.6" height="4" fill="#e8c069" rx="0.3"/>
<rect x="178.85" y="177.65" width="5.6" height="4" fill="#e8c069" rx="0.3"/>
<rect x="88.65" y="187.85" width="4" height="5.6" fill="#e8c069" rx="0.3"/>
<rect x="96.65" y="187.85" width="4" height="5.6" fill="#e8c069" rx="0.3"/>
<rect x="185.65" y="199.85" width="4" height="5.6" fill="#e8c069" rx="0.3"/>
<rect x="193.65" y="199.85" width="4" height="5.6" fill="#e8c069" rx="0.3"/>
<rect x="193.85" y="209.65" width="5.6" height="4" fill="#e8c069" rx="0.3"/>
<rect x="193.85" y="217.65" width="5.6" height="4" fill="#e8c069" rx="0.3"/>
<rect x="342.15" y="148.85" width="4" height="5.6" fill="#e8c069" rx="0.3"/>
<rect x="350.15" y="148.85" width="4" height="5.6" fill="#e8c069" rx="0.3"/>
<rect x="200.35" y="163.15" width="5.6" height="4" fill="#e8c069" rx="0.3"/>
<rect x="200.35" y="171.15" width="5.6" height="4" fill="#e8c069" rx="0.3"/>
<rect x="106.15" y="141.35" width="4" height="5.6" fill="#e8c069" rx="0.3"/>
<rect x="114.15" y="141.35" width="4" height="5.6" fill="#e8c069" rx="0.3"/>
<rect x="107.15" y="157.85" width="4" height="5.6" fill="#e8c069" rx="0.3"/>
<rect x="115.15" y="157.85" width="4" height="5.6" fill="#e8c069" rx="0.3"/>
<rect x="162.65" y="190.35" width="4" height="5.6" fill="#e8c069" rx="0.3"/>
<rect x="170.65" y="190.35" width="4" height="5.6" fill="#e8c069" rx="0.3"/>
<rect x="140.65" y="202.85" width="4" height="5.6" fill="#e8c069" rx="0.3"/>
<rect x="148.65" y="202.85" width="4" height="5.6" fill="#e8c069" rx="0.3"/>
<rect x="174.15" y="54.85" width="4" height="5.6" fill="#e8c069" rx="0.3"/>
<rect x="182.15" y="54.85" width="4" height="5.6" fill="#e8c069" rx="0.3"/>
<rect x="251.65" y="236.35" width="4" height="5.6" fill="#e8c069" rx="0.3"/>
<rect x="259.65" y="236.35" width="4" height="5.6" fill="#e8c069" rx="0.3"/>
<rect x="317.65" y="213.85" width="4" height="5.6" fill="#e8c069" rx="0.3"/>
<rect x="325.65" y="213.85" width="4" height="5.6" fill="#e8c069" rx="0.3"/>
<rect x="277.35" y="109.15" width="5.6" height="4" fill="#e8c069" rx="0.3"/>
<rect x="277.35" y="117.15" width="5.6" height="4" fill="#e8c069" rx="0.3"/>
<rect x="268.85" y="171.15" width="5.6" height="4" fill="#e8c069" rx="0.3"/>
<rect x="268.85" y="179.15" width="5.6" height="4" fill="#e8c069" rx="0.3"/>
<rect x="224.35" y="225.65" width="5.6" height="4" fill="#e8c069" rx="0.3"/>
<rect x="224.35" y="233.65" width="5.6" height="4" fill="#e8c069" rx="0.3"/>
<rect x="291.85" y="184.65" width="5.6" height="4" fill="#e8c069" rx="0.3"/>
<rect x="291.85" y="192.65" width="5.6" height="4" fill="#e8c069" rx="0.3"/>
<rect x="220.15" y="210.15" width="7" height="7" fill="#e8c069" rx="0.3"/>
<circle cx="223.65" cy="213.65" r="1" fill="#0b3d2e"/>
<rect x="60.65" y="228.65" width="7" height="7" fill="#e8c069" rx="0.3"/>
<circle cx="64.15" cy="232.15" r="1" fill="#0b3d2e"/>
<rect x="321.15" y="158.9" width="6" height="2.5" fill="#e8c069" rx="0.3"/>
<rect x="300.15" y="128.9" width="6" height="2.5" fill="#e8c069" rx="0.3"/>
<rect x="321.15" y="153.9" width="6" height="2.5" fill="#e8c069" rx="0.3"/>
<rect x="300.15" y="133.9" width="6" height="2.5" fill="#e8c069" rx="0.3"/>
<rect x="321.15" y="148.9" width="6" height="2.5" fill="#e8c069" rx="0.3"/>
<rect x="300.15" y="138.9" width="6" height="2.5" fill="#e8c069" rx="0.3"/>
<rect x="321.15" y="143.9" width="6" height="2.5" fill="#e8c069" rx="0.3"/>
<rect x="300.15" y="143.9" width="6" height="2.5" fill="#e8c069" rx="0.3"/>
<rect x="321.15" y="138.9" width="6" height="2.5" fill="#e8c069" rx="0.3"/>
<rect x="300.15" y="148.9" width="6" height="2.5" fill="#e8c069" rx="0.3"/>
<rect x="321.15" y="133.9" width="6" height="2.5" fill="#e8c069" rx="0.3"/>
<rect x="300.15" y="153.9" width="6" height="2.5" fill="#e8c069" rx="0.3"/>
<rect x="321.15" y="128.9" width="6" height="2.5" fill="#e8c069" rx="0.3"/>
<rect x="300.15" y="158.9" width="6" height="2.5" fill="#e8c069" rx="0.3"/>
<rect x="141.4" y="97.65" width="2.5" height="6" fill="#e8c069" rx="0.3"/>
<rect x="111.4" y="118.65" width="2.5" height="6" fill="#e8c069" rx="0.3"/>
<rect x="136.4" y="97.65" width="2.5" height="6" fill="#e8c069" rx="0.3"/>
<rect x="116.4" y="118.65" width="2.5" height="6" fill="#e8c069" rx="0.3"/>
<rect x="131.4" y="97.65" width="2.5" height="6" fill="#e8c069" rx="0.3"/>
<rect x="121.4" y="118.65" width="2.5" height="6" fill="#e8c069" rx="0.3"/>
<rect x="126.4" y="97.65" width="2.5" height="6" fill="#e8c069" rx="0.3"/>
<rect x="126.4" y="118.65" width="2.5" height="6" fill="#e8c069" rx="0.3"/>
<rect x="121.4" y="97.65" width="2.5" height="6" fill="#e8c069" rx="0.3"/>
<rect x="131.4" y="118.65" width="2.5" height="6" fill="#e8c069" rx="0.3"/>
<rect x="116.4" y="97.65" width="2.5" height="6" fill="#e8c069" rx="0.3"/>
<rect x="136.4" y="118.65" width="2.5" height="6" fill="#e8c069" rx="0.3"/>
<rect x="111.4" y="97.65" width="2.5" height="6" fill="#e8c069" rx="0.3"/>
<rect x="141.4" y="118.65" width="2.5" height="6" fill="#e8c069" rx="0.3"/>
<rect x="255.15" y="278.65" width="7" height="7" fill="#e8c069" rx="0.3"/>
<circle cx="258.65" cy="282.15" r="1" fill="#0b3d2e"/>
<rect x="255.15" y="298.65" width="7" height="7" fill="#e8c069" rx="0.3"/>
<circle cx="258.65" cy="302.15" r="1" fill="#0b3d2e"/>
<rect x="275.15" y="278.65" width="7" height="7" fill="#e8c069" rx="0.3"/>
<circle cx="278.65" cy="282.15" r="1" fill="#0b3d2e"/>
<rect x="275.15" y="298.65" width="7" height="7" fill="#e8c069" rx="0.3"/>
<circle cx="278.65" cy="302.15" r="1" fill="#0b3d2e"/>
<rect x="295.15" y="278.65" width="7" height="7" fill="#e8c069" rx="0.3"/>
<circle cx="298.65" cy="282.15" r="1" fill="#0b3d2e"/>
<rect x="295.15" y="298.65" width="7" height="7" fill="#e8c069" rx="0.3"/>
<circle cx="298.65" cy="302.15" r="1" fill="#0b3d2e"/>
<rect x="95.15" y="278.65" width="7" height="7" fill="#e8c069" rx="0.3"/>
<circle cx="98.65" cy="282.15" r="1" fill="#0b3d2e"/>
<rect x="95.15" y="298.65" width="7" height="7" fill="#e8c069" rx="0.3"/>
<circle cx="98.65" cy="302.15" r="1" fill="#0b3d2e"/>
<rect x="115.15" y="278.65" width="7" height="7" fill="#e8c069" rx="0.3"/>
<circle cx="118.65" cy="282.15" r="1" fill="#0b3d2e"/>
<rect x="115.15" y="298.65" width="7" height="7" fill="#e8c069" rx="0.3"/>
<circle cx="118.65" cy="302.15" r="1" fill="#0b3d2e"/>
<rect x="135.15" y="278.65" width="7" height="7" fill="#e8c069" rx="0.3"/>
<circle cx="138.65" cy="282.15" r="1" fill="#0b3d2e"/>
<rect x="135.15" y="298.65" width="7" height="7" fill="#e8c069" rx="0.3"/>
<circle cx="138.65" cy="302.15" r="1" fill="#0b3d2e"/>
<rect x="344.9" y="278.4" width="7.5" height="7.5" fill="#e8c069" rx="0.3"/>
<circle cx="348.65" cy="282.15" r="1" fill="#0b3d2e"/>
<rect x="354.9" y="278.4" width="7.5" height="7.5" fill="#e8c069" rx="0.3"/>
<circle cx="358.65" cy="282.15" r="1" fill="#0b3d2e"/>
<rect x="364.9" y="278.4" width="7.5" height="7.5" fill="#e8c069" rx="0.3"/>
<circle cx="368.65" cy="282.15" r="1" fill="#0b3d2e"/>
<rect x="184.9" y="278.4" width="7.5" height="7.5" fill="#e8c069" rx="0.3"/>
<circle cx="188.65" cy="282.15" r="1" fill="#0b3d2e"/>
<rect x="194.9" y="278.4" width="7.5" height="7.5" fill="#e8c069" rx="0.3"/>
<circle cx="198.65" cy="282.15" r="1" fill="#0b3d2e"/>
<rect x="204.9" y="278.4" width="7.5" height="7.5" fill="#e8c069" rx="0.3"/>
<circle cx="208.65" cy="282.15" r="1" fill="#0b3d2e"/>
<rect x="24.9" y="278.4" width="7.5" height="7.5" fill="#e8c069" rx="0.3"/>
<circle cx="28.65" cy="282.15" r="1" fill="#0b3d2e"/>
<rect x="34.9" y="278.4" width="7.5" height="7.5" fill="#e8c069" rx="0.3"/>
<circle cx="38.65" cy="282.15" r="1" fill="#0b3d2e"/>
<rect x="44.9" y="278.4" width="7.5" height="7.5" fill="#e8c069" rx="0.3"/>
<circle cx="48.65" cy="282.15" r="1" fill="#0b3d2e"/>
<circle cx="201" cy="194.25" r="1.4" fill="#c9c9c9"/>
<circle cx="201" cy="194.25" r="0.6" fill="#0b3d2e"/>
<circle cx="279.25" cy="144.75" r="1.4" fill="#c9c9c9"/>
<circle cx="279.25" cy="144.75" r="0.6" fill="#0b3d2e"/>
<circle cx="172.25" cy="144.75" r="1.4" fill="#c9c9c9"/>
<circle cx="172.25" cy="144.75" r="0.6" fill="#0b3d2e"/>
<circle cx="129.75" cy="191.5" r="1.4" fill="#c9c9c9"/>
<circle cx="129.75" cy="191.5" r="0.6" fill="#0b3d2e"/>
<circle cx="207.25" cy="198.25" r="1.4" fill="#c9c9c9"/>
<circle cx="207.25" cy="198.25" r="0.6" fill="#0b3d2e"/>
<circle cx="236.25" cy="273.75" r="1.4" fill="#c9c9c9"/>
<circle cx="236.25" cy="273.75" r="0.6" fill="#0b3d2e"/>
<circle cx="157.75" cy="100.75" r="1.4" fill="#c9c9c9"/>
<circle cx="157.75" cy="100.75" r="0.6" fill="#0b3d2e"/>
<circle cx="127.75" cy="100.75" r="1.4" fill="#c9c9c9"/>
<circle cx="127.75" cy="100.75" r="0.6" fill="#0b3d2e"/>
<circle cx="105.75" cy="121.75" r="1.4" fill="#c9c9c9"/>
<circle cx="105.75" cy="121.75" r="0.6" fill="#0b3d2e"/>
<circle cx="127.75" cy="121.75" r="1.4" fill="#c9c9c9"/>
<circle cx="127.75" cy="121.75" r="0.6" fill="#0b3d2e"/>
<circle cx="136.75" cy="155.25" r="1.4" fill="#c9c9c9"/>
<circle cx="136.75" cy="155.25" r="0.6" fill="#0b3d2e"/>
<circle cx="273.25" cy="148.5" r="1.4" fill="#c9c9c9"/>
<circle cx="273.25" cy="148.5" r="0.6" fill="#0b3d2e"/>
<circle cx="303.25" cy="145.25" r="1.4" fill="#c9c9c9"/>
<circle cx="303.25" cy="145.25" r="0.6" fill="#0b3d2e"/>
<circle cx="257" cy="70.25" r="1.4" fill="#c9c9c9"/>
<circle cx="257" cy="70.25" r="0.6" fill="#0b3d2e"/>
<circle cx="213.75" cy="109.75" r="1.4" fill="#c9c9c9"/>
<circle cx="213.75" cy="109.75" r="0.6" fill="#0b3d2e"/>
<circle cx="244.75" cy="141" r="1.4" fill="#c9c9c9"/>
<circle cx="244.75" cy="141" r="0.6" fill="#0b3d2e"/>
<circle cx="324.25" cy="150.25" r="1.4" fill="#c9c9c9"/>
<circle cx="324.25" cy="150.25" r="0.6" fill="#0b3d2e"/>
<circle cx="253" cy="137.5" r="1.4" fill="#c9c9c9"/>
<circle cx="253" cy="137.5" r="0.6" fill="#0b3d2e"/>
<circle cx="318" cy="137.5" r="1.4" fill="#c9c9c9"/>
<circle cx="318" cy="137.5" r="0.6" fill="#0b3d2e"/>
<circle cx="253.75" cy="223.5" r="1.4" fill="#c9c9c9"/>
<circle cx="253.75" cy="223.5" r="0.6" fill="#0b3d2e"/>
<circle cx="253.75" cy="239.25" r="1.4" fill="#c9c9c9"/>
<circle cx="253.75" cy="239.25" r="0.6" fill="#0b3d2e"/>
<circle cx="250" cy="181.25" r="1.4" fill="#c9c9c9"/>
<circle cx="250" cy="181.25" r="0.6" fill="#0b3d2e"/>
<circle cx="271.75" cy="181.25" r="1.4" fill="#c9c9c9"/>
<circle cx="271.75" cy="181.25" r="0.6" fill="#0b3d2e"/>
<circle cx="296.75" cy="152.5" r="1.4" fill="#c9c9c9"/>
<circle cx="296.75" cy="152.5" r="0.6" fill="#0b3d2e"/>
<circle cx="303.25" cy="175.75" r="1.4" fill="#c9c9c9"/>
<circle cx="303.25" cy="175.75" r="0.6" fill="#0b3d2e"/>
<circle cx="303.25" cy="155.25" r="1.4" fill="#c9c9c9"/>
<circle cx="303.25" cy="155.25" r="0.6" fill="#0b3d2e"/>
<circle cx="257.5" cy="220" r="1.4" fill="#c9c9c9"/>
<circle cx="257.5" cy="220" r="0.6" fill="#0b3d2e"/>
<circle cx="240" cy="235.75" r="1.4" fill="#c9c9c9"/>
<circle cx="240" cy="235.75" r="0.6" fill="#0b3d2e"/>
<circle cx="160.75" cy="104.75" r="1.4" fill="#c9c9c9"/>
<circle cx="160.75" cy="104.75" r="0.6" fill="#0b3d2e"/>
<circle cx="132.75" cy="104.75" r="1.4" fill="#c9c9c9"/>
<circle cx="132.75" cy="104.75" r="0.6" fill="#0b3d2e"/>
<circle cx="204" cy="160" r="1.4" fill="#c9c9c9"/>
<circle cx="204" cy="160" r="0.6" fill="#0b3d2e"/>
<circle cx="207.25" cy="187" r="1.4" fill="#c9c9c9"/>
<circle cx="207.25" cy="187" r="0.6" fill="#0b3d2e"/>
<circle cx="160.75" cy="121.75" r="1.4" fill="#c9c9c9"/>
<circle cx="160.75" cy="121.75" r="0.6" fill="#0b3d2e"/>
<circle cx="137.75" cy="121.75" r="1.4" fill="#c9c9c9"/>
<circle cx="137.75" cy="121.75" r="0.6" fill="#0b3d2e"/>
<circle cx="108.25" cy="144.25" r="1.4" fill="#c9c9c9"/>
<circle cx="108.25" cy="144.25" r="0.6" fill="#0b3d2e"/>
<circle cx="113.25" cy="149" r="1.4" fill="#c9c9c9"/>
<circle cx="113.25" cy="149" r="0.6" fill="#0b3d2e"/>
<circle cx="109.25" cy="160.75" r="1.4" fill="#c9c9c9"/>
<circle cx="109.25" cy="160.75" r="0.6" fill="#0b3d2e"/>
<circle cx="126.75" cy="130" r="1.4" fill="#c9c9c9"/>
<circle cx="126.75" cy="130" r="0.6" fill="#0b3d2e"/>
<circle cx="142.75" cy="125.5" r="1.4" fill="#c9c9c9"/>
<circle cx="142.75" cy="125.5" r="0.6" fill="#0b3d2e"/>
<circle cx="333.25" cy="135.25" r="1.4" fill="#c9c9c9"/>
<circle cx="333.25" cy="135.25" r="0.6" fill="#0b3d2e"/>
<circle cx="324.25" cy="134.5" r="1.4" fill="#c9c9c9"/>
<circle cx="324.25" cy="134.5" r="0.6" fill="#0b3d2e"/>
<circle cx="319.75" cy="216.75" r="1.4" fill="#c9c9c9"/>
<circle cx="319.75" cy="216.75" r="0.6" fill="#0b3d2e"/>
<circle cx="250" cy="216.25" r="1.4" fill="#c9c9c9"/>
<circle cx="250" cy="216.25" r="0.6" fill="#0b3d2e"/>
<circle cx="261.75" cy="239.25" r="1.4" fill="#c9c9c9"/>
<circle cx="261.75" cy="239.25" r="0.6" fill="#0b3d2e"/>
<circle cx="246.25" cy="175.5" r="1.4" fill="#c9c9c9"/>
<circle cx="246.25" cy="175.5" r="0.6" fill="#0b3d2e"/>
<circle cx="292" cy="152.5" r="1.4" fill="#c9c9c9"/>
<circle cx="292" cy="152.5" r="0.6" fill="#0b3d2e"/>
<circle cx="177.25" cy="148.5" r="1.4" fill="#c9c9c9"/>
<circle cx="177.25" cy="148.5" r="0.6" fill="#0b3d2e"/>
<circle cx="137.75" cy="108.5" r="1.4" fill="#c9c9c9"/>
<circle cx="137.75" cy="108.5" r="0.6" fill="#0b3d2e"/>
<circle cx="102.25" cy="125.75" r="1.4" fill="#c9c9c9"/>
<circle cx="102.25" cy="125.75" r="0.6" fill="#0b3d2e"/>
<circle cx="117.75" cy="100.75" r="1.4" fill="#c9c9c9"/>
<circle cx="117.75" cy="100.75" r="0.6" fill="#0b3d2e"/>
<circle cx="101" cy="199.5" r="1.4" fill="#c9c9c9"/>
<circle cx="101" cy="199.5" r="0.6" fill="#0b3d2e"/>
<circle cx="195" cy="249.5" r="1.4" fill="#c9c9c9"/>
<circle cx="195" cy="249.5" r="0.6" fill="#0b3d2e"/>
<circle cx="151" cy="151" r="1.4" fill="#c9c9c9"/>
<circle cx="151" cy="151" r="0.6" fill="#0b3d2e"/>
<circle cx="117.75" cy="129" r="1.4" fill="#c9c9c9"/>
<circle cx="117.75" cy="129" r="0.6" fill="#0b3d2e"/>
<circle cx="159.5" cy="195.75" r="1.4" fill="#c9c9c9"/>
<circle cx="159.5" cy="195.75" r="0.6" fill="#0b3d2e"/>
<circle cx="183.75" cy="195.75" r="1.4" fill="#c9c9c9"/>
<circle cx="183.75" cy="195.75" r="0.6" fill="#0b3d2e"/>
<circle cx="266.75" cy="207.5" r="1.4" fill="#c9c9c9"/>
<circle cx="266.75" cy="207.5" r="0.6" fill="#0b3d2e"/>
<circle cx="294.75" cy="186.75" r="1.4" fill="#c9c9c9"/>
<circle cx="294.75" cy="186.75" r="0.6" fill="#0b3d2e"/>
<circle cx="307.5" cy="206.25" r="1.4" fill="#c9c9c9"/>
<circle cx="307.5" cy="206.25" r="0.6" fill="#0b3d2e"/>
<circle cx="327.75" cy="198.25" r="1.4" fill="#c9c9c9"/>
<circle cx="327.75" cy="198.25" r="0.6" fill="#0b3d2e"/>
<circle cx="324.25" cy="129.75" r="1.4" fill="#c9c9c9"/>
<circle cx="324.25" cy="129.75" r="0.6" fill="#0b3d2e"/>
<circle cx="180.75" cy="181.5" r="1.4" fill="#c9c9c9"/>
<circle cx="180.75" cy="181.5" r="0.6" fill="#0b3d2e"/>
<circle cx="173.25" cy="181.5" r="1.4" fill="#c9c9c9"/>
<circle cx="173.25" cy="181.5" r="0.6" fill="#0b3d2e"/>
<circle cx="185.25" cy="178" r="1.4" fill="#c9c9c9"/>
<circle cx="185.25" cy="178" r="0.6" fill="#0b3d2e"/>
<circle cx="190.25" cy="159.25" r="1.4" fill="#c9c9c9"/>
<circle cx="190.25" cy="159.25" r="0.6" fill="#0b3d2e"/>
<circle cx="167.75" cy="119" r="1.4" fill="#c9c9c9"/>
<circle cx="167.75" cy="119" r="0.6" fill="#0b3d2e"/>
<circle cx="142.75" cy="108.5" r="1.4" fill="#c9c9c9"/>
<circle cx="142.75" cy="108.5" r="0.6" fill="#0b3d2e"/>
<circle cx="155.75" cy="205.75" r="1.4" fill="#c9c9c9"/>
<circle cx="155.75" cy="205.75" r="0.6" fill="#0b3d2e"/>
<circle cx="142.75" cy="205.75" r="1.4" fill="#c9c9c9"/>
<circle cx="142.75" cy="205.75" r="0.6" fill="#0b3d2e"/>
<circle cx="155.75" cy="183.5" r="1.4" fill="#c9c9c9"/>
<circle cx="155.75" cy="183.5" r="0.6" fill="#0b3d2e"/>
<circle cx="158.25" cy="163.75" r="1.4" fill="#c9c9c9"/>
<circle cx="158.25" cy="163.75" r="0.6" fill="#0b3d2e"/>
<circle cx="203.25" cy="165.25" r="1.4" fill="#c9c9c9"/>
<circle cx="203.25" cy="165.25" r="0.6" fill="#0b3d2e"/>
<circle cx="121.5" cy="154.75" r="1.4" fill="#c9c9c9"/>
<circle cx="121.5" cy="154.75" r="0.6" fill="#0b3d2e"/>
<circle cx="121.5" cy="145.25" r="1.4" fill="#c9c9c9"/>
<circle cx="121.5" cy="145.25" r="0.6" fill="#0b3d2e"/>
<circle cx="121.5" cy="132.5" r="1.4" fill="#c9c9c9"/>
<circle cx="121.5" cy="132.5" r="0.6" fill="#0b3d2e"/>
<circle cx="169.25" cy="89" r="1.4" fill="#c9c9c9"/>
<circle cx="169.25" cy="89" r="0.6" fill="#0b3d2e"/>
<circle cx="188.75" cy="254.75" r="1.4" fill="#c9c9c9"/>
<circle cx="188.75" cy="254.75" r="0.6" fill="#0b3d2e"/>
<circle cx="108.5" cy="187.75" r="1.4" fill="#c9c9c9"/>
<circle cx="108.5" cy="187.75" r="0.6" fill="#0b3d2e"/>
<circle cx="221.25" cy="113.5" r="1.4" fill="#c9c9c9"/>
<circle cx="221.25" cy="113.5" r="0.6" fill="#0b3d2e"/>
<circle cx="37.25" cy="125.75" r="1.4" fill="#c9c9c9"/>
<circle cx="37.25" cy="125.75" r="0.6" fill="#0b3d2e"/>
<circle cx="334" cy="276.5" r="1.4" fill="#c9c9c9"/>
<circle cx="334" cy="276.5" r="0.6" fill="#0b3d2e"/>
<circle cx="38.75" cy="262.75" r="1.4" fill="#c9c9c9"/>
<circle cx="38.75" cy="262.75" r="0.6" fill="#0b3d2e"/>
<circle cx="278.75" cy="186.75" r="1.4" fill="#c9c9c9"/>
<circle cx="278.75" cy="186.75" r="0.6" fill="#0b3d2e"/>
<circle cx="278.75" cy="203.75" r="1.4" fill="#c9c9c9"/>
<circle cx="278.75" cy="203.75" r="0.6" fill="#0b3d2e"/>
<circle cx="278.75" cy="223.5" r="1.4" fill="#c9c9c9"/>
<circle cx="278.75" cy="223.5" r="0.6" fill="#0b3d2e"/>
<circle cx="274.5" cy="255" r="1.4" fill="#c9c9c9"/>
<circle cx="274.5" cy="255" r="0.6" fill="#0b3d2e"/>
<circle cx="257.5" cy="209.75" r="1.4" fill="#c9c9c9"/>
<circle cx="257.5" cy="209.75" r="0.6" fill="#0b3d2e"/>
<circle cx="243" cy="213.75" r="1.4" fill="#c9c9c9"/>
<circle cx="243" cy="213.75" r="0.6" fill="#0b3d2e"/>
<circle cx="202.75" cy="216.25" r="1.4" fill="#c9c9c9"/>
<circle cx="202.75" cy="216.25" r="0.6" fill="#0b3d2e"/>
<circle cx="183.25" cy="222.25" r="1.4" fill="#c9c9c9"/>
<circle cx="183.25" cy="222.25" r="0.6" fill="#0b3d2e"/>
<circle cx="147.75" cy="222.25" r="1.4" fill="#c9c9c9"/>
<circle cx="147.75" cy="222.25" r="0.6" fill="#0b3d2e"/>
<circle cx="93.5" cy="191.75" r="1.4" fill="#c9c9c9"/>
<circle cx="93.5" cy="191.75" r="0.6" fill="#0b3d2e"/>
<circle cx="187.5" cy="203.75" r="1.4" fill="#c9c9c9"/>
<circle cx="187.5" cy="203.75" r="0.6" fill="#0b3d2e"/>
<circle cx="169.5" cy="207.5" r="1.4" fill="#c9c9c9"/>
<circle cx="169.5" cy="207.5" r="0.6" fill="#0b3d2e"/>
<circle cx="150.75" cy="213" r="1.4" fill="#c9c9c9"/>
<circle cx="150.75" cy="213" r="0.6" fill="#0b3d2e"/>
<circle cx="147.25" cy="230.75" r="1.4" fill="#c9c9c9"/>
<circle cx="147.25" cy="230.75" r="0.6" fill="#0b3d2e"/>
<circle cx="122.5" cy="230.75" r="1.4" fill="#c9c9c9"/>
<circle cx="122.5" cy="230.75" r="0.6" fill="#0b3d2e"/>
<circle cx="122.5" cy="223.25" r="1.4" fill="#c9c9c9"/>
<circle cx="122.5" cy="223.25" r="0.6" fill="#0b3d2e"/>
<circle cx="94.5" cy="232.25" r="1.4" fill="#c9c9c9"/>
<circle cx="94.5" cy="232.25" r="0.6" fill="#0b3d2e"/>
<circle cx="273.25" cy="133.75" r="1.4" fill="#c9c9c9"/>
<circle cx="273.25" cy="133.75" r="0.6" fill="#0b3d2e"/>
<circle cx="163.25" cy="92.75" r="1.4" fill="#c9c9c9"/>
<circle cx="163.25" cy="92.75" r="0.6" fill="#0b3d2e"/>
<circle cx="332.25" cy="42.75" r="1.4" fill="#c9c9c9"/>
<circle cx="332.25" cy="42.75" r="0.6" fill="#0b3d2e"/>
<circle cx="248.5" cy="136" r="1.4" fill="#c9c9c9"/>
<circle cx="248.5" cy="136" r="0.6" fill="#0b3d2e"/>
<circle cx="187.75" cy="126.75" r="1.4" fill="#c9c9c9"/>
<circle cx="187.75" cy="126.75" r="0.6" fill="#0b3d2e"/>
<circle cx="168.75" cy="138" r="1.4" fill="#c9c9c9"/>
<circle cx="168.75" cy="138" r="0.6" fill="#0b3d2e"/>
<circle cx="184.25" cy="57.75" r="1.4" fill="#c9c9c9"/>
<circle cx="184.25" cy="57.75" r="0.6" fill="#0b3d2e"/>
<circle cx="200.65" cy="125.15" r="1.4" fill="#c9c9c9"/>
<circle cx="200.65" cy="125.15" r="0.6" fill="#0b3d2e"/>
<text x="225.15" y="53.15" font-family="DejaVu Sans" font-size="4" fill="#f2f0e6">ESP P148 3-WAY VARIABLE CROSSOVER</text>
<text x="225.15" y="58.65" font-family="DejaVu Sans" font-size="4" fill="#f2f0e6">RETUNED QUAD SMD - ONE CHANNEL</text>
<text x="225.15" y="64.15" font-family="DejaVu Sans" font-size="4" fill="#f2f0e6">195Hz-1.03kHz / 73-186Hz</text>
<polyline points="211.15 95.65 210.661 98.7402 209.24 101.528 207.028 103.74 204.24 105.161 201.15 105.65 198.06 105.161 195.272 103.74 193.06 101.528 191.639 98.7402 191.15 95.65 191.639 92.5598 193.06 89.7721 195.272 87.5598 198.06 86.1394 201.15 85.65 204.24 86.1394 207.028 87.5598 209.24 89.7721 210.661 92.5598 211.15 95.65" fill="none" stroke="#f2f0e6" stroke-width="0.7"/>
<text x="188.65" y="83.65" font-family="DejaVu Sans" font-size="4" fill="#f2f0e6">C0</text>
<text x="185.65" y="96.65" font-family="DejaVu Sans" font-size="4" fill="#f2f0e6">+</text>
<text x="232.65" y="168.65" font-family="DejaVu Sans" font-size="4" fill="#f2f0e6">C1</text>
<polyline points="16.15 123.65 13.0598 123.161 10.2721 121.74 8.05983 119.528 6.63943 116.74 6.15 113.65 6.63943 110.56 8.05983 107.772 10.2721 105.56 13.0598 104.139 16.15 103.65 19.2402 104.139 22.0279 105.56 24.2402 107.772 25.6606 110.56 26.15 113.65 25.6606 116.74 24.2402 119.528 22.0279 121.74 19.2402 123.161 16.15 123.65" fill="none" stroke="#f2f0e6" stroke-width="0.7"/>
<text x="28.15" y="115.25" font-family="DejaVu Sans" font-size="4" fill="#f2f0e6">C10</text>
<text x="15.15" y="98.15" font-family="DejaVu Sans" font-size="4" fill="#f2f0e6">+</text>
<polyline points="308.15 234.15 307.661 237.24 306.24 240.028 304.028 242.24 301.24 243.661 298.15 244.15 295.06 243.661 292.272 242.24 290.06 240.028 288.639 237.24 288.15 234.15 288.639 231.06 290.06 228.272 292.272 226.06 295.06 224.639 298.15 224.15 301.24 224.639 304.028 226.06 306.24 228.272 307.661 231.06 308.15 234.15" fill="none" stroke="#f2f0e6" stroke-width="0.7"/>
<text x="285.65" y="222.15" font-family="DejaVu Sans" font-size="4" fill="#f2f0e6">C11</text>
<text x="282.65" y="235.15" font-family="DejaVu Sans" font-size="4" fill="#f2f0e6">+</text>
<polyline points="234.65 118.65 231.56 118.161 228.772 116.74 226.56 114.528 225.139 111.74 224.65 108.65 225.139 105.56 226.56 102.772 228.772 100.56 231.56 99.1394 234.65 98.65 237.74 99.1394 240.528 100.56 242.74 102.772 244.161 105.56 244.65 108.65 244.161 111.74 242.74 114.528 240.528 116.74 237.74 118.161 234.65 118.65" fill="none" stroke="#f2f0e6" stroke-width="0.7"/>
<text x="246.65" y="110.25" font-family="DejaVu Sans" font-size="4" fill="#f2f0e6">C12</text>
<text x="233.65" y="93.15" font-family="DejaVu Sans" font-size="4" fill="#f2f0e6">+</text>
<polyline points="48.65 154.65 48.1606 157.74 46.7402 160.528 44.5279 162.74 41.7402 164.161 38.65 164.65 35.5598 164.161 32.7721 162.74 30.5598 160.528 29.1394 157.74 28.65 154.65 29.1394 151.56 30.5598 148.772 32.7721 146.56 35.5598 145.139 38.65 144.65 41.7402 145.139 44.5279 146.56 46.7402 148.772 48.1606 151.56 48.65 154.65" fill="none" stroke="#f2f0e6" stroke-width="0.7"/>
<text x="26.15" y="142.65" font-family="DejaVu Sans" font-size="4" fill="#f2f0e6">C13</text>
<text x="23.15" y="155.65" font-family="DejaVu Sans" font-size="4" fill="#f2f0e6">+</text>
<text x="332.15" y="183.65" font-family="DejaVu Sans" font-size="4" fill="#f2f0e6">C2</text>
<text x="75.15" y="201.65" font-family="DejaVu Sans" font-size="4" fill="#f2f0e6">C3A</text>
<text x="242.65" y="263.65" font-family="DejaVu Sans" font-size="4" fill="#f2f0e6">C3B</text>
<text x="151.65" y="176.65" font-family="DejaVu Sans" font-size="4" fill="#f2f0e6">C4A</text>
<text x="164.65" y="153.65" font-family="DejaVu Sans" font-size="4" fill="#f2f0e6">C4B</text>
<text x="347.45" y="119.15" font-family="DejaVu Sans" font-size="4" fill="#f2f0e6">C5</text>
<text x="277.45" y="139.15" font-family="DejaVu Sans" font-size="4" fill="#f2f0e6">C6</text>
<text x="167.45" y="84.65" font-family="DejaVu Sans" font-size="4" fill="#f2f0e6">C7</text>
<text x="139.95" y="150.15" font-family="DejaVu Sans" font-size="4" fill="#f2f0e6">C8</text>
<polyline points="332.15 44.15 329.06 43.6606 326.272 42.2402 324.06 40.0279 322.639 37.2402 322.15 34.15 322.639 31.0598 324.06 28.2721 326.272 26.0598 329.06 24.6394 332.15 24.15 335.24 24.6394 338.028 26.0598 340.24 28.2721 341.661 31.0598 342.15 34.15 341.661 37.2402 340.24 40.0279 338.028 42.2402 335.24 43.6606 332.15 44.15" fill="none" stroke="#f2f0e6" stroke-width="0.7"/>
<text x="344.15" y="35.75" font-family="DejaVu Sans" font-size="4" fill="#f2f0e6">C9</text>
<text x="331.15" y="18.65" font-family="DejaVu Sans" font-size="4" fill="#f2f0e6">+</text>
<text x="222" y="37.15" font-family="DejaVu Sans" font-size="5" fill="#f2f0e6">+15</text>
<text x="236" y="37.15" font-family="DejaVu Sans" font-size="5" fill="#f2f0e6">GND</text>
<text x="250" y="37.15" font-family="DejaVu Sans" font-size="5" fill="#f2f0e6">-15</text>
<polyline points="219.65 6.15 261.65 6.15 261.65 32.15 219.65 32.15 219.65 6.15" fill="none" stroke="#f2f0e6" stroke-width="0.7"/>
<polyline points="222.65 8.15 230.65 8.15 230.65 14.15 222.65 14.15 222.65 8.15" fill="none" stroke="#f2f0e6" stroke-width="0.7"/>
<polyline points="236.65 8.15 244.65 8.15 244.65 14.15 236.65 14.15 236.65 8.15" fill="none" stroke="#f2f0e6" stroke-width="0.7"/>
<polyline points="250.65 8.15 258.65 8.15 258.65 14.15 250.65 14.15 250.65 8.15" fill="none" stroke="#f2f0e6" stroke-width="0.7"/>
<text x="219.65" y="39.15" font-family="DejaVu Sans" font-size="5" fill="#f2f0e6">J1</text>
<text x="142.15" y="85.25" font-family="DejaVu Sans" font-size="5" fill="#f2f0e6">IN</text>
<text x="142.15" y="72.8" font-family="DejaVu Sans" font-size="5" fill="#f2f0e6">GND</text>
<polyline points="111.15 89.15 111.15 61.15 137.15 61.15 137.15 89.15 111.15 89.15" fill="none" stroke="#f2f0e6" stroke-width="0.7"/>
<polyline points="113.15 86.15 113.15 78.15 119.15 78.15 119.15 86.15 113.15 86.15" fill="none" stroke="#f2f0e6" stroke-width="0.7"/>
<polyline points="113.15 72.15 113.15 64.15 119.15 64.15 119.15 72.15 113.15 72.15" fill="none" stroke="#f2f0e6" stroke-width="0.7"/>
<text x="139.15" y="77.15" font-family="DejaVu Sans" font-size="5" fill="#f2f0e6">J2</text>
<text x="146.2" y="39.15" font-family="DejaVu Sans" font-size="5" fill="#f2f0e6">HI</text>
<text x="158.65" y="39.15" font-family="DejaVu Sans" font-size="5" fill="#f2f0e6">GND</text>
<polyline points="142.3 8.15 170.3 8.15 170.3 34.15 142.3 34.15 142.3 8.15" fill="none" stroke="#f2f0e6" stroke-width="0.7"/>
<polyline points="145.3 10.15 153.3 10.15 153.3 16.15 145.3 16.15 145.3 10.15" fill="none" stroke="#f2f0e6" stroke-width="0.7"/>
<polyline points="159.3 10.15 167.3 10.15 167.3 16.15 159.3 16.15 159.3 10.15" fill="none" stroke="#f2f0e6" stroke-width="0.7"/>
<text x="142.3" y="41.15" font-family="DejaVu Sans" font-size="5" fill="#f2f0e6">J3</text>
<text x="88.65" y="39.15" font-family="DejaVu Sans" font-size="5" fill="#f2f0e6">MID</text>
<text x="102.65" y="39.15" font-family="DejaVu Sans" font-size="5" fill="#f2f0e6">GND</text>
<polyline points="86.3 8.15 114.3 8.15 114.3 34.15 86.3 34.15 86.3 8.15" fill="none" stroke="#f2f0e6" stroke-width="0.7"/>
<polyline points="89.3 10.15 97.3 10.15 97.3 16.15 89.3 16.15 89.3 10.15" fill="none" stroke="#f2f0e6" stroke-width="0.7"/>
<polyline points="103.3 10.15 111.3 10.15 111.3 16.15 103.3 16.15 103.3 10.15" fill="none" stroke="#f2f0e6" stroke-width="0.7"/>
<text x="86.3" y="41.15" font-family="DejaVu Sans" font-size="5" fill="#f2f0e6">J4</text>
<text x="32.65" y="39.15" font-family="DejaVu Sans" font-size="5" fill="#f2f0e6">LOW</text>
<text x="46.65" y="39.15" font-family="DejaVu Sans" font-size="5" fill="#f2f0e6">GND</text>
<polyline points="30.3 8.15 58.3 8.15 58.3 34.15 30.3 34.15 30.3 8.15" fill="none" stroke="#f2f0e6" stroke-width="0.7"/>
<polyline points="33.3 10.15 41.3 10.15 41.3 16.15 33.3 16.15 33.3 10.15" fill="none" stroke="#f2f0e6" stroke-width="0.7"/>
<polyline points="47.3 10.15 55.3 10.15 55.3 16.15 47.3 16.15 47.3 10.15" fill="none" stroke="#f2f0e6" stroke-width="0.7"/>
<text x="30.3" y="41.15" font-family="DejaVu Sans" font-size="5" fill="#f2f0e6">J5</text>
<text x="247.15" y="149.85" font-family="DejaVu Sans" font-size="4" fill="#f2f0e6">R1</text>
<text x="258.65" y="204.35" font-family="DejaVu Sans" font-size="4" fill="#f2f0e6">R10</text>
<text x="139.65" y="217.85" font-family="DejaVu Sans" font-size="4" fill="#f2f0e6">R11</text>
<text x="156.15" y="214.35" font-family="DejaVu Sans" font-size="4" fill="#f2f0e6">R12</text>
<text x="207.95" y="117.15" font-family="DejaVu Sans" font-size="4" fill="#f2f0e6">R13</text>
<text x="211.45" y="190.15" font-family="DejaVu Sans" font-size="4" fill="#f2f0e6">R14</text>
<text x="172.15" y="140.35" font-family="DejaVu Sans" font-size="4" fill="#f2f0e6">R15</text>
<text x="185.95" y="171.65" font-family="DejaVu Sans" font-size="4" fill="#f2f0e6">R16</text>
<text x="90.65" y="186.35" font-family="DejaVu Sans" font-size="4" fill="#f2f0e6">R17</text>
<text x="187.65" y="198.35" font-family="DejaVu Sans" font-size="4" fill="#f2f0e6">R18</text>
<text x="200.95" y="211.65" font-family="DejaVu Sans" font-size="4" fill="#f2f0e6">R19</text>
<text x="344.15" y="147.35" font-family="DejaVu Sans" font-size="4" fill="#f2f0e6">R2</text>
<text x="207.45" y="165.15" font-family="DejaVu Sans" font-size="4" fill="#f2f0e6">R20</text>
<text x="108.15" y="139.85" font-family="DejaVu Sans" font-size="4" fill="#f2f0e6">R21</text>
<text x="109.15" y="156.35" font-family="DejaVu Sans" font-size="4" fill="#f2f0e6">R22</text>
<text x="164.65" y="188.85" font-family="DejaVu Sans" font-size="4" fill="#f2f0e6">R23</text>
<text x="142.65" y="201.35" font-family="DejaVu Sans" font-size="4" fill="#f2f0e6">R24</text>
<text x="176.15" y="53.35" font-family="DejaVu Sans" font-size="4" fill="#f2f0e6">R3</text>
<text x="253.65" y="234.85" font-family="DejaVu Sans" font-size="4" fill="#f2f0e6">R4</text>
<text x="319.65" y="212.35" font-family="DejaVu Sans" font-size="4" fill="#f2f0e6">R5</text>
<text x="284.45" y="111.15" font-family="DejaVu Sans" font-size="4" fill="#f2f0e6">R6</text>
<text x="275.95" y="173.15" font-family="DejaVu Sans" font-size="4" fill="#f2f0e6">R7</text>
<text x="231.45" y="227.65" font-family="DejaVu Sans" font-size="4" fill="#f2f0e6">R8</text>
<text x="298.95" y="186.65" font-family="DejaVu Sans" font-size="4" fill="#f2f0e6">R9</text>
<polyline points="218.65 208.65 228.65 208.65 228.65 218.65 218.65 218.65 218.65 208.65" fill="none" stroke="#f2f0e6" stroke-width="0.7"/>
<text x="230.15" y="211.65" font-family="DejaVu Sans" font-size="5" fill="#f2f0e6">TP1</text>
<polyline points="59.15 227.15 69.15 227.15 69.15 237.15 59.15 237.15 59.15 227.15" fill="none" stroke="#f2f0e6" stroke-width="0.7"/>
<text x="70.65" y="230.15" font-family="DejaVu Sans" font-size="5" fill="#f2f0e6">TP2</text>
<polyline points="321.15 164.15 306.15 164.15 306.15 126.15 321.15 126.15 321.15 164.15" fill="none" stroke="#f2f0e6" stroke-width="0.7"/>
<polyline points="321.15 164.15 317.65 164.15" fill="none" stroke="#f2f0e6" stroke-width="0.7"/>
<text x="300.15" y="171.15" font-family="DejaVu Sans" font-size="5" fill="#f2f0e6">U1</text>
<polyline points="146.65 103.65 146.65 118.65 108.65 118.65 108.65 103.65 146.65 103.65" fill="none" stroke="#f2f0e6" stroke-width="0.7"/>
<polyline points="146.65 103.65 146.65 107.15" fill="none" stroke="#f2f0e6" stroke-width="0.7"/>
<text x="148.65" y="113.15" font-family="DejaVu Sans" font-size="5" fill="#f2f0e6">U2</text>
<polyline points="252.65 274.15 304.65 274.15 304.65 317.15 252.65 317.15 252.65 274.15" fill="none" stroke="#f2f0e6" stroke-width="0.7"/>
<text x="252.65" y="271.15" font-family="DejaVu Sans" font-size="5" fill="#f2f0e6">HIGH/MID</text>
<text x="252.65" y="263.15" font-family="DejaVu Sans" font-size="5" fill="#f2f0e6">VR1</text>
<polyline points="92.65 274.15 144.65 274.15 144.65 317.15 92.65 317.15 92.65 274.15" fill="none" stroke="#f2f0e6" stroke-width="0.7"/>
<text x="92.65" y="271.15" font-family="DejaVu Sans" font-size="5" fill="#f2f0e6">MID/LOW</text>
<text x="92.65" y="263.15" font-family="DejaVu Sans" font-size="5" fill="#f2f0e6">VR2</text>
<polyline points="340.15 274.15 377.15 274.15 377.15 302.15 340.15 302.15 340.15 274.15" fill="none" stroke="#f2f0e6" stroke-width="0.7"/>
<text x="340.15" y="271.15" font-family="DejaVu Sans" font-size="5" fill="#f2f0e6">HIGH VOL</text>
<text x="340.15" y="263.15" font-family="DejaVu Sans" font-size="5" fill="#f2f0e6">VR3</text>
<polyline points="180.15 274.15 217.15 274.15 217.15 302.15 180.15 302.15 180.15 274.15" fill="none" stroke="#f2f0e6" stroke-width="0.7"/>
<text x="180.15" y="271.15" font-family="DejaVu Sans" font-size="5" fill="#f2f0e6">MID VOL</text>
<text x="180.15" y="263.15" font-family="DejaVu Sans" font-size="5" fill="#f2f0e6">VR4</text>
<polyline points="20.15 274.15 57.15 274.15 57.15 302.15 20.15 302.15 20.15 274.15" fill="none" stroke="#f2f0e6" stroke-width="0.7"/>
<text x="20.15" y="271.15" font-family="DejaVu Sans" font-size="5" fill="#f2f0e6">LOW VOL</text>
<text x="20.15" y="263.15" font-family="DejaVu Sans" font-size="5" fill="#f2f0e6">VR5</text>
<circle cx="9" cy="9" r="6.3" fill="#0b3d2e" stroke="#f2f0e6" stroke-width="0.4"/>
<circle cx="375" cy="9" r="6.3" fill="#0b3d2e" stroke="#f2f0e6" stroke-width="0.4"/>
<circle cx="9" cy="315" r="6.3" fill="#0b3d2e" stroke="#f2f0e6" stroke-width="0.4"/>
<circle cx="375" cy="315" r="6.3" fill="#0b3d2e" stroke="#f2f0e6" stroke-width="0.4"/>
<circle cx="264.65" cy="260.15" r="4.5" fill="#0b3d2e" stroke="#f2f0e6" stroke-width="0.4"/>
<circle cx="292.65" cy="260.15" r="4.5" fill="#0b3d2e" stroke="#f2f0e6" stroke-width="0.4"/>
<circle cx="104.65" cy="260.15" r="4.5" fill="#0b3d2e" stroke="#f2f0e6" stroke-width="0.4"/>
<circle cx="132.65" cy="260.15" r="4.5" fill="#0b3d2e" stroke="#f2f0e6" stroke-width="0.4"/>
<polyline points="0 0 384 0 384 324 0 324 0 0" fill="none" stroke="#ff66ff" stroke-width="0.6"/>
</svg>